<svg xmlns="http://www.w3.org/2000/svg" width="22.167" height="24.63" viewBox="0 0 22.167 24.63">
  <path id="Icon_material-date-range" data-name="Icon material-date-range"
    d="M11.889,14.084H9.426v2.463h2.463Zm4.926,0H14.352v2.463h2.463Zm4.926,0H19.278v2.463h2.463ZM24.2,5.463H22.973V3H20.51V5.463H10.658V3H8.195V5.463H6.963A2.452,2.452,0,0,0,4.512,7.926L4.5,25.167A2.462,2.462,0,0,0,6.963,27.63H24.2a2.47,2.47,0,0,0,2.463-2.463V7.926A2.47,2.47,0,0,0,24.2,5.463Zm0,19.7H6.963V11.621H24.2Z"
    transform="translate(-4.5 -3)" fill="#0084AC" />
</svg>