<svg xmlns="http://www.w3.org/2000/svg" width="27.65" height="30.551" viewBox="0 0 27.65 30.551">
  <g id="Icon_feather-home" data-name="Icon feather-home" transform="translate(-4 -2.5)">
    <path id="Path_6" data-name="Path 6"
      d="M17.825,2.5a.767.767,0,0,1,.472.162L31.353,12.817a.768.768,0,0,1,.3.606V29.382a3.674,3.674,0,0,1-3.67,3.67H7.67A3.674,3.674,0,0,1,4,29.382V13.423a.768.768,0,0,1,.3-.606L17.353,2.662A.767.767,0,0,1,17.825,2.5ZM30.114,13.8,17.825,4.241,5.536,13.8V29.382A2.136,2.136,0,0,0,7.67,31.515H27.98a2.136,2.136,0,0,0,2.133-2.133Z"
      fill="#0084AC" />
    <path id="Path_7" data-name="Path 7"
      d="M23.233,29.94a.768.768,0,0,1-.768-.768V19.036H14.536V29.172a.768.768,0,0,1-1.536,0v-10.9a.768.768,0,0,1,.768-.768h9.465a.768.768,0,0,1,.768.768v10.9A.768.768,0,0,1,23.233,29.94Z"
      transform="translate(-0.676 3.112)" fill="#0084AC" />
  </g>
</svg>