<svg xmlns="http://www.w3.org/2000/svg" width="11.424" height="10.934" viewBox="0 0 11.424 10.934">
  <g id="Group_7356" data-name="Group 7356" transform="translate(-55.551 0)">
    <path id="Icon_awesome-star" data-name="Icon awesome-star"
      d="M6.541.379,5.146,3.207l-3.12.455a.684.684,0,0,0-.378,1.166l2.257,2.2-.534,3.107a.683.683,0,0,0,.991.72L7.153,9.386l2.791,1.467a.683.683,0,0,0,.991-.72L10.4,7.027l2.257-2.2a.684.684,0,0,0-.378-1.166l-3.12-.455L7.766.379a.684.684,0,0,0-1.226,0Z"
      transform="translate(54.11 0.001)" fill="#0084AC" />
  </g>
</svg>