<svg xmlns="http://www.w3.org/2000/svg" width="17" height="19.429" viewBox="0 0 17 19.429">
  <path id="Icon_awesome-unlock" data-name="Icon awesome-unlock"
    d="M15.179,9.714H5.768V5.8a2.732,2.732,0,1,1,5.464-.034v.607a.909.909,0,0,0,.911.911h1.214a.909.909,0,0,0,.911-.911V5.768a5.768,5.768,0,1,0-11.536.057v3.89H1.821A1.822,1.822,0,0,0,0,11.536v6.071a1.822,1.822,0,0,0,1.821,1.821H15.179A1.822,1.822,0,0,0,17,17.607V11.536A1.822,1.822,0,0,0,15.179,9.714Z"
    transform="translate(0 0)" fill="#0084AC" />
</svg>