<svg xmlns="http://www.w3.org/2000/svg" version="1.1" xmlns:xlink="http://www.w3.org/1999/xlink"
    xmlns:svgjs="http://svgjs.com/svgjs" width="512" height="512" x="0" y="0" viewBox="0 0 512 512"
    style="enable-background:new 0 0 512 512" xml:space="preserve" class="">
    <g>
        <path
            d="M203.698 142.283c3.276-8.735 6.922-16.467 10.878-23.15-28.107 8.523-52.578 25.478-70.456 47.912 13.564 5.842 30.22 10.489 48.835 13.704 2.804-13.942 6.405-26.899 10.743-38.466zM189.095 204.363c-22.37-3.876-42.402-9.685-58.468-17.088A141.917 141.917 0 0 0 113.499 244h72.546c.381-13.61 1.413-26.903 3.05-39.637zM295.21 183.969c-2.497-12.065-5.63-23.267-9.377-33.26-8.718-23.257-20.145-37.704-29.819-37.704-9.686 0-21.122 14.448-29.844 37.705-3.747 9.992-6.881 21.193-9.38 33.257 12.587 1.26 25.752 1.925 39.224 1.925 13.462 0 26.619-.664 39.197-1.923zM212.867 304.376c13.89-1.466 28.378-2.24 43.147-2.24 14.76 0 29.238.773 43.12 2.238 1.486-11.654 2.428-23.85 2.797-36.374H210.07c.369 12.524 1.311 24.721 2.798 36.376zM186.045 268h-72.546a141.919 141.919 0 0 0 17.14 56.747c16.064-7.4 36.093-13.208 58.459-17.082-1.639-12.743-2.672-26.045-3.053-39.665zM319.046 180.751c18.617-3.216 35.273-7.864 48.84-13.708-17.879-22.437-42.35-39.393-70.457-47.914 3.956 6.683 7.601 14.417 10.877 23.155 4.337 11.568 7.937 24.525 10.74 38.467zM299.135 207.654c-13.881 1.465-28.36 2.238-43.12 2.238-14.771 0-29.26-.773-43.15-2.24-1.486 11.647-2.427 23.834-2.796 36.348h91.862c-.369-12.513-1.31-24.7-2.795-36.346zM216.794 328.06c2.498 12.059 5.63 23.254 9.376 33.24 8.72 23.25 20.156 37.694 29.844 37.694 9.676 0 21.102-14.443 29.82-37.693 3.744-9.987 6.876-21.183 9.373-33.242-12.577-1.258-25.732-1.922-39.193-1.922-13.47 0-26.635.664-39.22 1.924z"
            fill="#0084AC" data-original="#000000" opacity="1" class=""></path>
        <path
            d="M411.462 0H100.566C45.122 0 .014 45.107.014 100.552v310.896C.014 466.893 45.122 512 100.566 512h310.896c55.43 0 100.524-45.107 100.524-100.552V100.552C511.986 45.107 466.89 0 411.462 0zM256.014 422.994c-92.096 0-167.023-74.913-167.023-166.994S163.918 89.005 256.014 89.005c92.081 0 166.995 74.914 166.995 166.995s-74.914 166.994-166.995 166.994z"
            fill="#0084AC" data-original="#000000" opacity="1" class=""></path>
        <path
            d="M325.955 244h72.546a141.937 141.937 0 0 0-17.125-56.726c-16.067 7.405-36.1 13.215-58.47 17.09 1.636 12.735 2.668 26.028 3.05 39.636zM308.306 369.727c-3.275 8.732-6.918 16.462-10.872 23.142 28.096-8.518 52.558-25.466 70.434-47.891-13.564-5.841-30.215-10.487-48.825-13.701-2.803 13.937-6.402 26.887-10.737 38.45zM192.959 331.278c-18.61 3.215-35.26 7.859-48.822 13.698 17.876 22.422 42.338 39.368 70.434 47.889-3.954-6.68-7.598-14.407-10.873-23.137-4.336-11.562-7.936-24.512-10.74-38.45zM322.903 307.664c22.366 3.874 42.395 9.682 58.461 17.084A141.939 141.939 0 0 0 398.501 268h-72.546c-.381 13.619-1.414 26.921-3.052 39.664z"
            fill="#0084AC" data-original="#000000" opacity="1" class=""></path>
    </g>
</svg>