<svg xmlns="http://www.w3.org/2000/svg" viewBox="0 0 500 500">
    <g id="freepik--Floor--inject-2">
        <ellipse id="freepik--floor--inject-2" cx="250.88" cy="348.41" rx="239.7" ry="138.39" style="fill:#0084AC74">
        </ellipse>
    </g>
    <g id="freepik--Shadows--inject-2">
        <ellipse id="freepik--Shadow--inject-2" cx="250.88" cy="429.43" rx="66.23" ry="38.24" style="fill:#0084AC">
        </ellipse>
        <ellipse id="freepik--shadow--inject-2" cx="108.93" cy="388.65" rx="66.23" ry="38.24" style="fill:#0084AC">
        </ellipse>
        <ellipse id="freepik--shadow--inject-2" cx="396.63" cy="388.65" rx="66.23" ry="38.24" style="fill:#0084AC">
        </ellipse>
    </g>
    <g id="freepik--character-3--inject-2">
        <g id="freepik--Character--inject-2">
            <g id="freepik--Botom--inject-2">
                <path
                    d="M421,361c.18-4.42,2.73-49.3,2.73-49.3L401.33,327.8c3.49,25.47,5,33.25,5.21,37.49h0a3.54,3.54,0,0,0-.08,1.09c.22,5,6.31,7.55,11.11,10.74a87.53,87.53,0,0,0,12.93,7.4c3.46,1.5,10.35,1.4,11.12-.7-5.84-3.92-12.6-8.2-17.3-12.75C422.08,368.9,420.76,366.29,421,361Z"
                    style="fill:#ffa8a7"></path>
                <path
                    d="M448.42,389c.28,0,.8,3-.62,4.38-1.65,1.55-6.57,4.19-13.22,3.56s-10.31-2.59-13-4.75S415,387,412,386.39c-2.8-.52-5.87-1.7-6.79-2.54s-1-4.73-1-4.73Z"
                    style="fill:#263238"></path>
                <path
                    d="M406.45,364.06s-.72,0-.86.9c-.16,1.07-.35,4.21-.72,6-.52,2.46-.93,7.52-.49,9.5s5,3.2,8,4.22a37,37,0,0,1,9.61,5.69c3.21,2.5,9.85,4.88,14.17,4.79,6.58-.14,10.78-2.11,12-4.56,1.52-3,.94-5.14-6.76-8.43a92.05,92.05,0,0,1-8.59-4.73,25.31,25.31,0,0,1-10-11.48,2.94,2.94,0,0,0-1.14-1.57,2.41,2.41,0,0,0-1.48-.09c-1.25.23-4.88.82-6,1.42s-2.42,1.15-2.34,2.48a4.4,4.4,0,0,0,.33,1.33c.1.27.19.62,0,.79s-.51,0-.71-.17a20.57,20.57,0,0,1-2.14-2.42,7.41,7.41,0,0,0-1.24-1.2,12.74,12.74,0,0,1-1.33-.81S406.5,364.68,406.45,364.06Z"
                    style="fill:#455a64"></path>
                <path
                    d="M441.58,382.15c-9.5,1-13.48,7.27-12.28,11.8a22.52,22.52,0,0,0,6.83,1.2c6.58-.14,11.05-2.11,12.27-4.57C449.83,387.72,448.44,384.52,441.58,382.15Z"
                    style="fill:#fafafa"></path>
                <path
                    d="M428.64,383.53a.43.43,0,0,1-.3-.09.49.49,0,0,1-.09-.67,11.09,11.09,0,0,1,8.49-3.76.47.47,0,0,1-.07.94,10.28,10.28,0,0,0-7.68,3.4A.45.45,0,0,1,428.64,383.53Z"
                    style="fill:#f0f0f0"></path>
                <path
                    d="M424.8,381.21a.41.41,0,0,1-.3-.09.48.48,0,0,1-.09-.67,11,11,0,0,1,8.48-3.76.47.47,0,0,1-.06.94,10.24,10.24,0,0,0-7.68,3.4A.47.47,0,0,1,424.8,381.21Z"
                    style="fill:#f0f0f0"></path>
                <path
                    d="M421,378.24a.46.46,0,0,1-.3-.09.48.48,0,0,1-.09-.67,11.06,11.06,0,0,1,8.48-3.76.47.47,0,0,1,.44.5.46.46,0,0,1-.5.44,10.3,10.3,0,0,0-7.68,3.4A.47.47,0,0,1,421,378.24Z"
                    style="fill:#f0f0f0"></path>
                <path
                    d="M417.25,375.26a.53.53,0,0,1-.3-.09.49.49,0,0,1-.1-.67c1.74-2.41,5.8-4.1,9.28-3.84a.48.48,0,0,1-.06.95c-3.13-.24-6.93,1.32-8.47,3.46A.46.46,0,0,1,417.25,375.26Z"
                    style="fill:#f0f0f0"></path>
                <path
                    d="M380.47,325.52l-23.56-3.94c-.3,14,.69,32.59,1.16,45.47.08,2.46-1,19.15-.17,24.25,1.23,7.67,11.53,7,12.28,2.41s1.11-23.89,1.24-25.9c.31-8.4,4.8-22.6,7.86-37.6C379.43,329.47,380.33,326.24,380.47,325.52Z"
                    style="fill:#ffa8a7"></path>
                <path
                    d="M373.9,397c0,4.48-.59,7.49-2.22,10.21s-4.95,3.74-8.44,3.17-8-2.36-9.26-6.16-1.22-6.45-.71-10.64Z"
                    style="fill:#263238"></path>
                <path
                    d="M358,365.63c-1.41.18-1.36,6-1.77,12.07-.45,6.49-2.45,9.28-2.88,14.6-.49,6.08,0,8.75,2.68,12.26s11.36,6.6,15.19,1.13c3.13-4.45,3-9.18,2.24-15.18a137.41,137.41,0,0,1-1.33-15.31c0-4.53.67-8.76-.59-9.2-.05.67-.09,1.52-.15,2.18,0,.5,0,2.95-.81,3a8.73,8.73,0,0,1-.13-1.7,1.83,1.83,0,0,0-.48-1.43,5.54,5.54,0,0,0-2.25-.69c-1.4-.16-2.82-.3-4.24-.33-.71,0-1.42,0-2.13,0a6.23,6.23,0,0,0-1.77.33,1.2,1.2,0,0,0-.73.66,1.78,1.78,0,0,0,0,.69,4.37,4.37,0,0,1-.09,1.25c0,.18-.17.4-.37.37s-.25-.2-.26-.35c-.05-.73,0-1.26,0-2.11,0-.39,0-.76-.05-1.16S358,366,358,365.63Z"
                    style="fill:#455a64"></path>
                <path
                    d="M353.2,395.82c0,3.75.42,6.3,2.48,9.05,2.64,3.51,12,6.57,15.88,1.11,1.9-2.72,2.26-5.83,2.33-9C371.12,393.12,356.92,392.16,353.2,395.82Z"
                    style="fill:#fafafa"></path>
                <path
                    d="M369.83,390.66l-.18,0a23.29,23.29,0,0,0-12.28-.4.54.54,0,0,1-.65-.31.46.46,0,0,1,.36-.58,24.1,24.1,0,0,1,13,.43.45.45,0,0,1,.29.61A.57.57,0,0,1,369.83,390.66Z"
                    style="fill:#f0f0f0"></path>
                <path
                    d="M357.42,385.7a.52.52,0,0,1-.47-.28.45.45,0,0,1,.29-.61c6.22-2.26,12.68.22,12.95.33a.44.44,0,0,1,.26.61.57.57,0,0,1-.69.24c-.07,0-6.34-2.43-12.12-.32A.83.83,0,0,1,357.42,385.7Z"
                    style="fill:#f0f0f0"></path>
                <path
                    d="M357.5,381.44a.51.51,0,0,1-.46-.27.44.44,0,0,1,.27-.61,18.21,18.21,0,0,1,13.21.28.43.43,0,0,1,.22.62.56.56,0,0,1-.71.2,17.31,17.31,0,0,0-12.3-.25A.63.63,0,0,1,357.5,381.44Z"
                    style="fill:#f0f0f0"></path>
                <path
                    d="M357.61,376.66a.56.56,0,0,1-.46-.27.46.46,0,0,1,.27-.62c6.4-2.53,13,.28,13.31.41a.43.43,0,0,1,.23.62.56.56,0,0,1-.7.21c-.07,0-6.47-2.75-12.41-.39A.67.67,0,0,1,357.61,376.66Z"
                    style="fill:#ebebeb"></path>
                <path
                    d="M365.17,217.12c0,25.39-3.51,76.25-3.51,76.25-.32,3.12-4.45,16.93-4.75,28.21-.47,18.11.26,30.66.26,30.66s10,3.71,17.17.85c0,0,9.21-36.42,11.61-48.21,2.87-14.05,9.68-41.59,9.68-41.59l4.8,37.1s-1.5,13.22,0,24.13c1,7.44,3.81,26.93,3.81,26.93s9.59,3.07,17.42.57c0,0,3.15-48.43,3.61-55.29s.41-42.33-1.27-85.59Z"
                    style="fill:#455a64"></path>
                <path d="M395.63,263.29l4-24.05a21.5,21.5,0,0,0,13.46-5.76s-.62,5.54-11.34,9.09l-3.67,19.95,2.35,37.87Z"
                    style="fill:#37474f"></path>
            </g>
            <g id="freepik--Top--inject-2">
                <path
                    d="M419.56,139.34c6.52,1.57,8.89,2.65,14.94,5.59,15.11,7.34,29.91,14.56,29.91,14.56s6.75,18.69,1.81,19.53c-2.21.38-9.48-.45-21.08-3.88-11.85-3.51-23.42-8-23.44-8.28C421.3,161.17,419.56,139.34,419.56,139.34Z"
                    style="fill:#0084AC"></path>
                <path
                    d="M419.56,139.34c6.52,1.57,8.89,2.65,14.94,5.59,15.11,7.34,29.91,14.56,29.91,14.56s6.75,18.69,1.81,19.53c-2.21.38-9.48-.45-21.08-3.88-11.85-3.51-23.42-8-23.44-8.28C421.3,161.17,419.56,139.34,419.56,139.34Z"
                    style="opacity:0.2"></path>
                <path
                    d="M456,175.14l-10.22-24.73L436,145.64c2.36,5.25,5.85,12.89,7.83,16.66C447,168.37,449.93,172.57,456,175.14Z"
                    style="opacity:0.2"></path>
                <path
                    d="M433.26,129.13c-.77-1.76-1.9-3.9-2.32-5.1-.8-2.23-.21-4.85.24-7.17.21-1.12.29-2,.48-3.1a16.28,16.28,0,0,0,.34-3.61,9.9,9.9,0,0,0-1.38-4.64c-.23-.42-2.94-.33-3.74-.63-1.41-.53-1.63-1.61-.48-1.85a19.4,19.4,0,0,1,5.37-.29c1.2.28,3.87,5.11,3.87,5.11s-1.18-3.93-1.68-5-3.06-1.36-4.45-1.84c-2.22-.76-2.8-2.74-1.93-2.8a25.07,25.07,0,0,1,7,.94c2,.59,2.63.95,3.62,3a36,36,0,0,1,1.71,4.43s-.24-6.34-.46-7.57c0,0-1.88-.73-2.7-1.1-1.18-.53-2.6-1.44-2.67-2.83,0,0-.39-1.41,1.85-.77a56.91,56.91,0,0,1,6.72,2.09c.67.44,1.17,2,1.48,4.93a97.81,97.81,0,0,1,.38,12.88A39,39,0,0,0,445,124c1.19,7.35,17,19.75,24.07,32.37,2.69,4.82,3.72,8.64,3.15,14.09-.74,7.17-4.72,9.73-8.53,7.92a34.51,34.51,0,0,1-15.5-16C442.17,148.88,436.66,135.67,433.26,129.13Z"
                    style="fill:#ffa8a7"></path>
                <path
                    d="M439.56,145.08l-2.45-5.74a26.72,26.72,0,0,0,9-2.25c3.86-2,4.9-3.81,4.9-3.81l3.5,4.22S449.32,146.22,439.56,145.08Z"
                    style="fill:#fafafa"></path>
                <path
                    d="M438,143.3c4.68-.24,14.86-3.2,15.63-7.54,8.61,9.84,12.87,15.24,16.31,20.75s3.77,14.64,1.47,19.23-7.64,4.57-14.34.19C447.42,169.61,438,143.3,438,143.3Z"
                    style="fill:#0084AC"></path>
                <path
                    d="M438,143.3c4.68-.24,14.86-3.2,15.63-7.54,8.61,9.84,12.87,15.24,16.31,20.75s3.77,14.64,1.47,19.23-7.64,4.57-14.34.19C447.42,169.61,438,143.3,438,143.3Z"
                    style="opacity:0.2"></path>
                <path
                    d="M422.41,157.28c-1.24-9-5.68-17.18-13.64-19.24l-20.91-2.41c-4.42,1.15-15.07,9.83-15.07,9.83l-6.57,33.21s-1.1,23-.76,38c12.85,8.15,40.8,10.79,58.36-2.54C424.34,201.73,423.64,166.17,422.41,157.28Z"
                    style="fill:#f0f0f0"></path>
                <path
                    d="M424.05,110.88c3.23-4.67,2.38-11.87.35-15.58-2.94-5.36-8.54-8.52-17.68-9.73-7-.92-14.26.6-16.93,7.39-5.84.56-8.48,8.63-7.08,16,1.62,8.59,5.57,13.35,6.05,18.66Z"
                    style="fill:#263238"></path>
                <path
                    d="M424.23,102.23c-2.75-3.16-12.53-6.12-20.84-5.2-.44,1.86-1,3.92-2.87,5.34a8.38,8.38,0,0,1-3,1.5,20.91,20.91,0,0,1-2.64,7.17,3.42,3.42,0,0,1-2.7,1.85c-1,.13-1.86-2.31-2.75-3.69s-4.2-3.67-6.76-.21a8.13,8.13,0,0,0,.56,10.25c3.19,3.09,5.9,1,5.9,1l-2,17.79c6.13,9.92,26.36,10.67,20.6,1.59l.68-4.2a17.55,17.55,0,0,0,3.43.51c3.73.14,6.56-2.28,8.42-6a37.18,37.18,0,0,0,3.16-11.91C424,113.57,425.46,105.89,424.23,102.23Z"
                    style="fill:#ffa8a7"></path>
                <path
                    d="M405.42,123.35a2,2,0,0,0-1.35,1.2c-.05.19,0,.5.45.66s1.1.27,1.65.43a3.7,3.7,0,0,1,1.7.92,6.56,6.56,0,0,0,.91.77.78.78,0,0,0,1.11-.08,1.8,1.8,0,0,0,.25-1C410.2,124.06,407.38,122.62,405.42,123.35Z"
                    style="fill:#b16668"></path>
                <path
                    d="M407.77,126.48a2.71,2.71,0,0,0-2.15-2.67,2.65,2.65,0,0,0-1.05,0,1.38,1.38,0,0,0-.5.73c-.05.19,0,.5.45.66s1.1.27,1.65.43A3.61,3.61,0,0,1,407.77,126.48Z"
                    style="fill:#f28f8f"></path>
                <path
                    d="M408.45,135.43c-4-1-12.18-4.6-13.88-7.25s-1.72-7.41-1.72-7.41-.82,5.84.34,8.71,5.13,4.81,7.55,5.94a58,58,0,0,0,7.32,2.43Z"
                    style="fill:#f28f8f"></path>
                <path
                    d="M408.78,113.79c0,1-.75,0-1.68.07s-1.64,1-1.68.07a1.71,1.71,0,0,1,1.6-1.82A1.73,1.73,0,0,1,408.78,113.79Z"
                    style="fill:#263238"></path>
                <path d="M420.24,116.33c-.35.9-.7-.27-1.57-.61s-1.92.29-1.57-.62a1.69,1.69,0,1,1,3.14,1.23Z"
                    style="fill:#263238"></path>
                <path d="M404.27,109.34l3.94-1.49c.34,1-.52,1.94-1.47,2.3A1.8,1.8,0,0,1,404.27,109.34Z"
                    style="fill:#263238"></path>
                <path d="M422.88,112.51l-3.31-2.6c-.62.84-.08,2,.72,2.64A1.79,1.79,0,0,0,422.88,112.51Z"
                    style="fill:#263238"></path>
                <polygon points="412.37 110.11 411.23 122.23 417.99 121.56 412.37 110.11" style="fill:#f28f8f">
                </polygon>
                <path
                    d="M427.83,172.84c.59-16.58.16-24.72-3.83-30.23-2.43-3.36-5.06-3.54-14.17-5.87l.87,2a13.65,13.65,0,0,1,3.22,3.93c1.75,2.82,3.18,5,4.27,12.57,1,6.94,0,31-.31,44.25s-.05,38.24-.05,38.24A24.22,24.22,0,0,0,427.5,231S426.67,204.94,427.83,172.84Z"
                    style="fill:#0084AC"></path>
                <path
                    d="M418,195.92c1.8-8.46,6.74-15.16,6.32-18.09S420,164.64,419.93,163s4.35,4,4.35,2.24c0-3.38-.54-7.47-4.64-16.5-3.28-7.23-6.7-10.78-11.24-13l-.59,3.66s3.72,2.26,7.1,19.72C416.91,169.48,418,177.15,418,195.92Z"
                    style="fill:#455a64"></path>
                <path
                    d="M389.59,153.72c0-6.37-3-14.63-3.18-19.1l-15,2.53a92.85,92.85,0,0,0-5.36,18.06c-1.86,9.53-3.24,15.75-3.48,37.38-.17,15.14.14,38.62.14,38.62,6.8,11.36,27.43,12.18,27.43,12.18s-1.1-15.26-.81-45.91C389.55,180.3,389.59,160.08,389.59,153.72Z"
                    style="fill:#0084AC"></path>
                <path
                    d="M388.22,128.67l-.58,5.18c.35,4.06,2.71,14.21,3.16,17.05.89,5.57.71,15.38-1.4,45-4.58-9.92-7.07-17-7.27-19.44s4.76-10.9,5.27-12.64-4.2,1.52-5.54-.09-2.28-28.12-2.28-28.12,2.74-2.57,4.12-4.06C385.35,129.8,386.14,128.67,388.22,128.67Z"
                    style="fill:#455a64"></path>
                <path
                    d="M371.46,137.15c-5.92.82-9,3.78-19.66,9.15-3.65,1.85-14.55,8.43-14.55,8.43l-7.68,14.16,2.68,3.88c5.73,1.37,9.38-.16,20.46-2.1,4.51-.78,10.31-1.62,10.89.28C370.55,174,378.73,147.39,371.46,137.15Z"
                    style="fill:#0084AC"></path>
                <path
                    d="M371.46,137.15c-5.92.82-9,3.78-19.66,9.15-3.65,1.85-14.55,8.43-14.55,8.43l-7.68,14.16,2.68,3.88c5.73,1.37,9.38-.16,20.46-2.1,4.51-.78,10.31-1.62,10.89.28C370.55,174,378.73,147.39,371.46,137.15Z"
                    style="opacity:0.2"></path>
                <path d="M362.62,148.73c-1.93,6.94-9.66,25.43-27.93,24.46Z" style="opacity:0.2"></path>
                <path
                    d="M362,124.5c.49-1.27-.46-5.06-.2-7.12s2.11-5.66,2.09-8.27.75-3.3,1.42-2.82a6.74,6.74,0,0,1,2.09,5C367.22,113.32,362,124.5,362,124.5Z"
                    style="fill:#f28f8f"></path>
                <path
                    d="M371.56,133.72c1.2-1.5,2.85-3.28,3.57-4.33,1.36-1.95,1.47-4.64,1.65-7,.08-1.14.23-2,.34-3.12a16.59,16.59,0,0,1,.61-3.59,10.08,10.08,0,0,1,2.54-4.13c.34-.35,2.94.46,3.79.37,1.5-.14,2-1.13.95-1.66a19.37,19.37,0,0,0-5.12-1.69c-1.23,0-5.08,3.94-5.08,3.94s2.17-3.5,2.92-4.37,3.32-.52,4.79-.62c2.35-.16,3.43-1.92,2.6-2.21a25.48,25.48,0,0,0-7-.92c-2.08.06-2.79.24-4.29,2A36.8,36.8,0,0,0,371,110.2s1.89-6.07,2.43-7.21c0,0,2-.21,2.89-.35,1.28-.21,2.9-.72,3.33-2,0,0,.75-1.26-1.59-1.24a58,58,0,0,0-7.05.28c-.77.25-1.66,1.65-2.72,4.38a97.21,97.21,0,0,0-3.73,12.37,39.76,39.76,0,0,1-3,9.32c-3.08,6.8-16.61,13.94-26.73,24.31-3.86,4-5.86,7.4-6.73,12.82-1.15,7.14,2,10.65,6.19,9.9a34.63,34.63,0,0,0,19.18-11.46C362.8,149.78,366.56,139.17,371.56,133.72Z"
                    style="fill:#ffa8a7"></path>
                <path
                    d="M377.73,115.67a8.46,8.46,0,0,1,1.2-2.65,9,9,0,0,1,.89-1.15l.25-.27.13-.14a.43.43,0,0,1,.22-.1,2.75,2.75,0,0,1,.76,0c1,.13,1.91.36,2.84.39a2,2,0,0,0,1.3-.41.76.76,0,0,0,.21-.73,10.86,10.86,0,0,0-1.92-1,5.92,5.92,0,0,1,2.08.94,1.15,1.15,0,0,1-.12,1c-.36.38-.54.56-1.52.54a22.49,22.49,0,0,1-2.9-.46,2.7,2.7,0,0,0-.69,0l-.1,0-.13.13L380,112a12,12,0,0,0-.91,1.12A9.68,9.68,0,0,0,377.73,115.67Z"
                    style="fill:#f28f8f"></path>
                <path
                    d="M351.07,135.79l4.61-3.81a29.73,29.73,0,0,0,4.8,6.35c3.65,3.95,5.83,4.11,5.83,4.11l-3.56,5.78C356.75,145.68,353.08,142.11,351.07,135.79Z"
                    style="fill:#fafafa"></path>
                <path
                    d="M351.73,133.3c3,4.86,8.23,11.86,12.9,13-2.36,2.72-7.53,13.84-15,19.51s-11.83,7-15.71,7.48-7.38-1.63-7.19-6.93.29-10.12,4.73-15.23S351.73,133.3,351.73,133.3Z"
                    style="fill:#0084AC"></path>
                <path
                    d="M351.73,133.3c3,4.86,8.23,11.86,12.9,13-2.36,2.72-7.53,13.84-15,19.51s-11.83,7-15.71,7.48-7.38-1.63-7.19-6.93.29-10.12,4.73-15.23S351.73,133.3,351.73,133.3Z"
                    style="opacity:0.2"></path>
            </g>
        </g>
    </g>
    <g id="freepik--character-2--inject-2">
        <g id="freepik--character--inject-2">
            <g id="freepik--botom--inject-2">
                <path
                    d="M275.84,401.76c.18-4.42,2.72-49.29,2.72-49.29L256.2,368.58c3.49,25.46,4.95,33.25,5.2,37.49h0a3.54,3.54,0,0,0-.08,1.09c.22,5,6.31,7.54,11.11,10.74a88.87,88.87,0,0,0,12.94,7.39c3.45,1.5,10.34,1.41,11.11-.69-5.84-3.93-12.59-8.2-17.29-12.75C276.94,409.68,275.62,407.07,275.84,401.76Z"
                    style="fill:#ffa8a7"></path>
                <path
                    d="M303.29,429.75c.27,0,.8,3-.63,4.37-1.65,1.56-6.56,4.2-13.21,3.57s-10.32-2.59-13.05-4.75-6.57-5.21-9.58-5.77c-2.81-.53-5.88-1.7-6.8-2.54s-.95-4.74-.95-4.74Z"
                    style="fill:#263238"></path>
                <path
                    d="M261.32,404.84a.91.91,0,0,0-.86.89c-.17,1.08-.36,4.22-.73,6-.51,2.47-.92,7.53-.48,9.51s5,3.2,8,4.21a37.19,37.19,0,0,1,9.62,5.7c3.21,2.49,9.85,4.88,14.16,4.79,6.59-.14,10.78-2.11,12-4.56,1.51-3,.93-5.14-6.77-8.43a92.05,92.05,0,0,1-8.59-4.73,25.36,25.36,0,0,1-10-11.49,3,3,0,0,0-1.15-1.57,2.4,2.4,0,0,0-1.48-.08c-1.25.23-4.88.82-6,1.42s-2.41,1.15-2.34,2.47a4.48,4.48,0,0,0,.34,1.34c.1.26.18.62,0,.79s-.51,0-.72-.18a20.39,20.39,0,0,1-2.13-2.41,7.47,7.47,0,0,0-1.25-1.2,12.74,12.74,0,0,1-1.33-.81A16.07,16.07,0,0,1,261.32,404.84Z"
                    style="fill:#455a64"></path>
                <path
                    d="M296.45,422.93c-9.51,1-13.49,7.27-12.28,11.79a22.14,22.14,0,0,0,6.82,1.21c6.59-.14,11.05-2.12,12.28-4.57C304.7,428.49,303.31,425.3,296.45,422.93Z"
                    style="fill:#fafafa"></path>
                <path
                    d="M283.5,424.31a.49.49,0,0,1-.3-.1.48.48,0,0,1-.09-.66,11.11,11.11,0,0,1,8.49-3.77.47.47,0,0,1,.43.51.46.46,0,0,1-.49.44,10.27,10.27,0,0,0-7.68,3.39A.45.45,0,0,1,283.5,424.31Z"
                    style="fill:#f0f0f0"></path>
                <path
                    d="M279.66,422a.49.49,0,0,1-.3-.1.47.47,0,0,1-.09-.66,11.09,11.09,0,0,1,8.49-3.77.48.48,0,0,1,.43.51.46.46,0,0,1-.5.44A10.26,10.26,0,0,0,280,421.8.46.46,0,0,1,279.66,422Z"
                    style="fill:#f0f0f0"></path>
                <path
                    d="M275.86,419a.49.49,0,0,1-.3-.1.48.48,0,0,1-.09-.66,11.13,11.13,0,0,1,8.49-3.77.48.48,0,0,1-.07.95,10.27,10.27,0,0,0-7.68,3.39A.45.45,0,0,1,275.86,419Z"
                    style="fill:#f0f0f0"></path>
                <path
                    d="M272.11,416a.45.45,0,0,1-.29-.1.47.47,0,0,1-.1-.66c1.73-2.41,5.8-4.1,9.27-3.84a.49.49,0,0,1,.44.51.46.46,0,0,1-.5.43c-3.13-.23-6.92,1.33-8.46,3.46A.46.46,0,0,1,272.11,416Z"
                    style="fill:#f0f0f0"></path>
                <path
                    d="M235.34,366.3l-23.56-3.94c-.31,14,.69,32.59,1.15,45.47.09,2.46-1,19.14-.16,24.25,1.22,7.67,11.52,6.95,12.28,2.41s1.11-23.9,1.23-25.91c.31-8.39,4.81-22.59,7.86-37.6C234.29,370.25,235.19,367,235.34,366.3Z"
                    style="fill:#ffa8a7"></path>
                <path
                    d="M228.76,437.78c0,4.49-.59,7.49-2.21,10.22s-5,3.74-8.45,3.17-8-2.37-9.26-6.16-1.21-6.45-.71-10.64Z"
                    style="fill:#263238"></path>
                <path
                    d="M212.88,406.4c-1.41.18-1.36,6-1.78,12.08-.45,6.49-2.45,9.27-2.88,14.6-.49,6.08.05,8.75,2.69,12.26s11.36,6.59,15.19,1.13c3.12-4.45,3-9.18,2.24-15.18A132.78,132.78,0,0,1,227,416c0-4.53.67-8.77-.6-9.2,0,.67-.08,1.52-.14,2.17s0,3-.81,3a7.41,7.41,0,0,1-.13-1.7,1.86,1.86,0,0,0-.49-1.43,5.31,5.31,0,0,0-2.24-.69c-1.41-.17-2.83-.3-4.25-.34-.71,0-1.42,0-2.12.05a6.23,6.23,0,0,0-1.78.33,1.19,1.19,0,0,0-.73.65,1.83,1.83,0,0,0,0,.7,4.73,4.73,0,0,1-.1,1.24c0,.19-.16.41-.37.38a.35.35,0,0,1-.25-.35c-.06-.73,0-1.26,0-2.11,0-.4,0-.77-.05-1.16S212.87,406.79,212.88,406.4Z"
                    style="fill:#455a64"></path>
                <path
                    d="M208.06,436.59c0,3.76.42,6.31,2.48,9.06,2.64,3.51,12.05,6.57,15.88,1.1,1.91-2.72,2.26-5.82,2.34-9C226,433.9,211.79,432.94,208.06,436.59Z"
                    style="fill:#fafafa"></path>
                <path
                    d="M224.69,431.43a.47.47,0,0,1-.17,0,23.37,23.37,0,0,0-12.28-.41.55.55,0,0,1-.66-.31.47.47,0,0,1,.36-.58,24,24,0,0,1,13,.44.44.44,0,0,1,.29.6A.52.52,0,0,1,224.69,431.43Z"
                    style="fill:#f0f0f0"></path>
                <path
                    d="M212.28,426.48a.51.51,0,0,1-.46-.29.45.45,0,0,1,.28-.6c6.22-2.26,12.68.22,13,.33a.44.44,0,0,1,.27.61.58.58,0,0,1-.7.23c-.06,0-6.33-2.42-12.12-.31A.78.78,0,0,1,212.28,426.48Z"
                    style="fill:#f0f0f0"></path>
                <path
                    d="M212.36,422.22a.53.53,0,0,1-.46-.28.45.45,0,0,1,.28-.61,18.24,18.24,0,0,1,13.2.28.44.44,0,0,1,.22.63.57.57,0,0,1-.71.19,17.44,17.44,0,0,0-12.3-.25A.59.59,0,0,1,212.36,422.22Z"
                    style="fill:#f0f0f0"></path>
                <path
                    d="M212.48,417.44a.52.52,0,0,1-.46-.28.44.44,0,0,1,.27-.61c6.39-2.54,13,.28,13.3.4a.44.44,0,0,1,.24.62.56.56,0,0,1-.71.21c-.06,0-6.47-2.74-12.41-.39A.59.59,0,0,1,212.48,417.44Z"
                    style="fill:#ebebeb"></path>
                <path
                    d="M220,257.89c0,25.4-3.51,76.26-3.51,76.26-.32,3.12-4.46,16.93-4.75,28.21-.47,18.1.25,30.66.25,30.66s10,3.71,17.17.85c0,0,9.21-36.42,11.62-48.21,2.86-14.05,9.67-41.6,9.67-41.6l4.81,37.11s-1.51,13.21,0,24.13c1,7.44,3.81,26.93,3.81,26.93s9.58,3.07,17.42.57c0,0,3.14-48.44,3.6-55.29s.41-42.34-1.27-85.59Z"
                    style="fill:#455a64"></path>
                <path d="M250.49,304.06l4-24A21.59,21.59,0,0,0,268,274.26s-.62,5.54-11.34,9.09l-3.68,19.95,2.36,37.87Z"
                    style="fill:#37474f"></path>
            </g>
            <g id="freepik--top--inject-2">
                <path
                    d="M325.16,172.21a6.73,6.73,0,0,1-.78,4.87,6.21,6.21,0,0,0-.06,5.12c.41,1.2,3.19,7.77,4.2,9.07a12.78,12.78,0,0,0,1.82,1.94,4.51,4.51,0,0,1-1.15,2.68,17.56,17.56,0,0,1-2.61,2.31s-5.69-7.84-5.92-13.35S321.25,176.51,325.16,172.21Z"
                    style="fill:#f28f8f"></path>
                <g id="freepik--Mask--inject-2">
                    <path
                        d="M332.15,213a.91.91,0,0,1-1.09-.61l-18-58.08a.91.91,0,0,1,.6-1.14.89.89,0,0,1,1.14.6l18,58.08a.91.91,0,0,1-.59,1.14Z"
                        style="fill:#263238"></path>
                    <g id="freepik--mask--inject-2">
                        <path
                            d="M316.69,116.54c-1.46-2.53-7.95-1.86-7.09-.12a46.73,46.73,0,0,1,3.17,9.37C318.61,120.94,316.69,116.54,316.69,116.54Z"
                            style="fill:#0084AC"></path>
                        <path
                            d="M292.37,143.17c4.85,12.7,7.79,14,10,14.45a28.33,28.33,0,0,0,11.16.17h0c.28-.06,6.07-1.15,8.22-2.27,3.66-1.91,5.29-4.61,5-9.2-.4-7.12-3.55-18-10.08-29.78v0c.49,2.53-5.25,5.93-9.22,7.65-7.86,3.4-12.26,2.88-17,2.27-2.36-.3-3.13.55-2.77,2.33A100.9,100.9,0,0,0,292.37,143.17Z"
                            style="fill:#0084AC"></path>
                        <g style="opacity:0.2">
                            <path
                                d="M292.37,143.17c4.85,12.7,7.79,14,10,14.45a28.33,28.33,0,0,0,11.16.17h0c.28-.06,6.07-1.15,8.22-2.27,3.66-1.91,5.29-4.61,5-9.2-.4-7.12-3.55-18-10.08-29.78v0c.49,2.53-5.25,5.93-9.22,7.65-7.86,3.4-12.26,2.88-17,2.27-2.36-.3-3.13.55-2.77,2.33A100.9,100.9,0,0,0,292.37,143.17Z"
                                style="fill:#fff"></path>
                        </g>
                        <path
                            d="M287.72,128.77c-.36-1.78.41-2.63,2.77-2.33,4.71.61,9.11,1.13,17-2.27.58-.25,1.21-.55,1.85-.87,4.81,6.14,10.54,21.7,11,32.81a61,61,0,0,1-6.77,1.68h0a28.33,28.33,0,0,1-11.16-.17c-2.17-.45-5.11-1.75-10-14.45A100.9,100.9,0,0,1,287.72,128.77Z"
                            style="fill:#fff;opacity:0.2"></path>
                        <path
                            d="M307,147.42a3.35,3.35,0,0,1,.39-.52,5,5,0,0,1,1.33-1,6.93,6.93,0,0,1,3.18-.76,6.26,6.26,0,0,1,2.66.56,2.74,2.74,0,0,1,1.93,2c0,.19-.07.54-.32.55-.45,0-.82-.35-1.19-.56a6.55,6.55,0,0,0-1.11-.51,5.77,5.77,0,0,0-2.33-.35,6.41,6.41,0,0,0-1.94.42,4.48,4.48,0,0,0-.85.42,4.77,4.77,0,0,1-1.15.68.84.84,0,0,1-.47,0,.41.41,0,0,1-.31-.31A1,1,0,0,1,307,147.42Z"
                            style="fill:#263238"></path>
                        <path
                            d="M304,136.39c-.1-1.61,1.23-.23,2.78-.32s2.74-1.64,2.84,0a2.85,2.85,0,0,1-2.62,3.09A2.88,2.88,0,0,1,304,136.39Z"
                            style="fill:#263238"></path>
                        <path
                            d="M316.94,133.29c-.88-1.26.89-.79,2.1-1.64s1.42-2.69,2.3-1.43a2.72,2.72,0,0,1-.6,3.82A2.75,2.75,0,0,1,316.94,133.29Z"
                            style="fill:#263238"></path>
                    </g>
                </g>
                <path
                    d="M271.39,179.87c6.57,2.53,9.34,5.26,11.92,12.46,2,5.51,7.12,18.59,9.62,26.61,3.47-4.15,9.62-11.79,11.89-17.8s2.48-9.16,3.92-12.63,1-2.91,4.11-5.79a33.09,33.09,0,0,0,4.2-4.25,22.83,22.83,0,0,0,2.66-5.33c1.76-1,2.82,2.67,2.24,5.16s-1.32,4.56-.11,8.06,4.74,11.84,4.74,11.84-4.37,4-6.33,5.36-3.75,4.39-6.9,11.53-5.18,12.94-10.19,21.25-10.53,11.92-15.21,7.78a48.07,48.07,0,0,1-9.51-11.56C273.58,224.2,267,209.78,267,209.78,264.47,199.93,265.39,181.84,271.39,179.87Z"
                    style="fill:#ffa8a7"></path>
                <path
                    d="M302.66,204.84l2-3.41s.27,3,3.58,6.53a14.36,14.36,0,0,0,6.75,4.27l-2.26,5.33S303.08,213.29,302.66,204.84Z"
                    style="fill:#fafafa"></path>
                <path
                    d="M269.93,179.25c8.08,2,10.5,3.19,15.8,15.91,5.38,12.91,8.72,20.2,8.72,20.2l8.27-11.61s2,8.34,11.87,12.26c-5.53,11-10.24,20.7-15.58,27.28-4.49,5.52-9,4.57-13.73-.33C275.52,232.84,267,212.07,267,212.07S259.65,193.44,269.93,179.25Z"
                    style="fill:#0084AC"></path>
                <path
                    d="M269.93,179.25c8.08,2,10.5,3.19,15.8,15.91,5.38,12.91,8.72,20.2,8.72,20.2l8.27-11.61s2,8.34,11.87,12.26c-5.53,11-10.24,20.7-15.58,27.28-4.49,5.52-9,4.57-13.73-.33C275.52,232.84,267,212.07,267,212.07S259.65,193.44,269.93,179.25Z"
                    style="opacity:0.2"></path>
                <path d="M294.45,215.36c-4.52,5.79-6.44,10.94-6.73,14.28a19.94,19.94,0,0,1,5.81-16.32Z"
                    style="opacity:0.2"></path>
                <path
                    d="M321.53,180h0a10.53,10.53,0,0,0,.31,6.33c.75,2.14,2.36,6.12,3.5,8.87a3.79,3.79,0,0,1-1.93,1.24c-1.84.28-2.92-2.85-2.92-2.85l-2,1.46c-1,.28-2-.71-1.93-2.07a14.5,14.5,0,0,1,1.09-3.58c-3.12.7-3.41-1.47-2.7-2.86S319.81,181.31,321.53,180Z"
                    style="fill:#f28f8f"></path>
                <path d="M317.09,194.59a8.7,8.7,0,0,0-4.47,5.07c.63-3,1.3-4,4-6Z" style="fill:#f28f8f"></path>
                <path
                    d="M320.74,173.11c.9.49,1.44,2.33,1.36,4a1.1,1.1,0,0,1-.85.16C319.48,176.86,320.22,174.62,320.74,173.11Z"
                    style="fill:#f28f8f"></path>
                <path
                    d="M325,171.72a3.33,3.33,0,0,1-.51,3.45c-.69,1.15-2.39,2.82-3.32,2.09s-.89-2.44,0-4.33,1.57-2.68,2.24-2.66A1.9,1.9,0,0,1,325,171.72Z"
                    style="fill:#ffa8a7"></path>
                <path
                    d="M326.82,178.81c1.28,1.62,1.32,3.11-.06,4.57s-5.39,3.71-6.78,4.68a8.24,8.24,0,0,1-3.28,1.66,1.55,1.55,0,0,1-1.49-2.39,10.47,10.47,0,0,1,2.57-3,65.87,65.87,0,0,1,5.8-5.34C324.94,178,326.16,178,326.82,178.81Z"
                    style="fill:#ffa8a7"></path>
                <path
                    d="M324.6,185.1c1.25-.91,2.93-.93,3.59,0s1.12,2.71,0,3.74-4.87,3.14-6,3.91-2.25,2-3.17,2.25a1.55,1.55,0,0,1-1.83-1.74,9,9,0,0,1,1.73-3.6A20,20,0,0,1,324.6,185.1Z"
                    style="fill:#ffa8a7"></path>
                <path
                    d="M330.25,193.81a4.79,4.79,0,0,0-.37-3.31c-.29-.7-.59-1.31-1.71-1.05a9.21,9.21,0,0,0-2.72,1.29,4.86,4.86,0,0,0-2.51,3.15c-.5,2-.32,2.77,1,2.55s1.51-.94,3-1.84S329.32,193.11,330.25,193.81Z"
                    style="fill:#ffa8a7"></path>
                <path
                    d="M312.26,204.13a10.68,10.68,0,0,0,2.75,1.48,3.93,3.93,0,0,0,4.12-1.07,13.34,13.34,0,0,0-1.69,2.29h0a2.19,2.19,0,0,1-2.23.19C313.68,206.51,312.26,204.13,312.26,204.13Z"
                    style="fill:#f28f8f"></path>
                <path d="M319.38,204.27l0-.05h0Z" style="fill:#f28f8f"></path>
                <path
                    d="M277.28,198.06c-1.24-9-5.3-21.33-19.21-21.88L243,177.33c-4.42,1.15-20.91,6.27-20.91,6.27l-1,35.84s-1.1,23-.76,38c12.85,8.15,40.79,10.79,58.36-2.54C279.21,242.51,278.5,207,277.28,198.06Z"
                    style="fill:#f0f0f0"></path>
                <path
                    d="M271.2,145.32c2.3-5.19.12-12.11-2.57-15.37-3.9-4.71-10-6.76-19.19-6.25-7,.39-13.9,3.26-15.25,10.43-5.63,1.65-5,10.88-3.67,15,2.79,8.29,8.33,15.51,8.4,19.74Z"
                    style="fill:#263238"></path>
                <path
                    d="M271.08,164.77c-1.12,4-3.45,6.89-7.15,7.45a31.18,31.18,0,0,1-5.82,0v5.36c6.16,8.81-13,9.52-19.59-.1l.17-16.41s-2.28,2.55-6,.1a8.11,8.11,0,0,1-2.46-10c1.86-3.88,5.55-2.25,6.68-1.06s2.44,3.42,3.39,3.12a3.41,3.41,0,0,0,2.3-2.33,20.76,20.76,0,0,0,1.25-7.53,8.36,8.36,0,0,0,2.63-2c1.6-1.75,1.74-3.86,1.82-5.78,8-2.45,18.15-1.38,21.45,1.21,1.89,3.37,1.91,11.18,2.2,15.68A37,37,0,0,1,271.08,164.77Z"
                    style="fill:#ffa8a7"></path>
                <path
                    d="M258.11,172.21c-4.08-.25-12.28-2.21-14.45-4.5s-3.08-7-3.08-7,.29,5.89,2,8.5,5.94,3.77,8.53,4.43a63.24,63.24,0,0,0,7,1.12Z"
                    style="fill:#f28f8f"></path>
                <path d="M255.62,150.7a1.69,1.69,0,1,1-3.37,0,1.69,1.69,0,1,1,3.37,0Z" style="fill:#263238"></path>
                <path d="M256.05,145.51l-4.24,2c-.46-1.07.41-2.19,1.44-2.67A2,2,0,0,1,256.05,145.51Z"
                    style="fill:#263238"></path>
                <path d="M269.13,146.68,265,146a2,2,0,0,1,2.31-1.74A2.19,2.19,0,0,1,269.13,146.68Z"
                    style="fill:#263238"></path>
                <path d="M268.49,150.45a1.69,1.69,0,1,1-1.68-1.76A1.72,1.72,0,0,1,268.49,150.45Z" style="fill:#263238">
                </path>
                <polygon points="259.92 146.88 261.06 159 267.57 157.08 259.92 146.88" style="fill:#f28f8f"></polygon>
                <path
                    d="M258.44,161.93l-.1-.09a1.26,1.26,0,0,0-.6-.2,1.85,1.85,0,0,0-.87.13,1.24,1.24,0,0,0-.72.7c0,.09,0,.22.06.25s.13,0,.19,0a2.67,2.67,0,0,1,1.88-.27.44.44,0,0,0,.2,0,.19.19,0,0,0,.16-.12A.55.55,0,0,0,258.44,161.93Z"
                    style="fill:#b16668"></path>
                <path
                    d="M280.67,210.46c-1.64-15-2.64-22.59-6.81-28-2.54-3.28-4.22-3.79-15.48-6.72v.6a13.72,13.72,0,0,1,3.35,3.83c1.84,2.76,4,7.47,6.16,15.58,2.91,11.05,4.36,35.66,4.51,48.95s-.63,34.32-.63,34.32,7-1.17,10.69-6C282.47,273,281.9,221.77,280.67,210.46Z"
                    style="fill:#0084AC"></path>
                <path
                    d="M272.1,234.05c1.8-8.46,5.36-11.41,4.94-14.34s-6.13-12.42-6.13-12.42a25.85,25.85,0,0,0,3.12-2.62c.82-1.35-1.07-8.4-5.55-16.42-3.88-6.94-5.87-13.08-10.41-15.26v3.19s2.87,3.13,8,20.54C269.59,208.48,270.72,220.94,272.1,234.05Z"
                    style="fill:#455a64"></path>
                <path
                    d="M243.24,192.29c-1.43-6-3.23-13.55-4.56-16.63l-16.86,6.06c-4.62,2.13-8.24,5.56-7.08,13.35l4.88,34.23-1.41,43.45c7.17,11.14,30.08,10.08,30.08,10.08s.51-15.72-.18-46.37C247.73,219.29,245.06,200,243.24,192.29Z"
                    style="fill:#0084AC"></path>
                <path
                    d="M238.58,171.52l0,2.89c1.12,2.86,3.68,10.08,4.37,12.87,2,8.15,5.23,19.92,5.19,49.18-1.89-9.94-8.76-11.15-9-13.62s3.6-10.77,4.07-12.53-4.13-.91-5.52-2.48-4.1-30.32-4.1-30.32,2.47-1.31,3.18-3.22S237.62,171.86,238.58,171.52Z"
                    style="fill:#455a64"></path>
                <path
                    d="M173.69,173.85a6.7,6.7,0,0,0,.71,4.87,6.23,6.23,0,0,1,0,5.13c-.43,1.19-3.3,7.72-4.33,9a13.11,13.11,0,0,1-1.84,1.92,4.49,4.49,0,0,0,1.11,2.69,17,17,0,0,0,2.58,2.36s5.8-7.76,6.11-13.27S177.54,178.2,173.69,173.85Z"
                    style="fill:#f28f8f"></path>
                <g id="freepik--mask--inject-2">
                    <path
                        d="M166.12,214.49a.91.91,0,0,0,1.11-.59l18.85-57.82a.9.9,0,0,0-.58-1.14.88.88,0,0,0-1.15.58L165.5,213.33a.92.92,0,0,0,.58,1.15Z"
                        style="fill:#263238"></path>
                    <path
                        d="M183,118.26c1.5-2.51,8-1.72,7.09,0a46.89,46.89,0,0,0-3.34,9.31C181,122.62,183,118.26,183,118.26Z"
                        style="fill:#0084AC"></path>
                    <path
                        d="M206.83,145.31c-5.07,12.62-8,13.86-10.21,14.28a28.75,28.75,0,0,1-11.17,0h0c-.28-.06-6.05-1.25-8.17-2.4-3.63-2-5.22-4.71-4.89-9.29.52-7.12,3.87-18,10.61-29.6v0c-.53,2.52,5.14,6,9.09,7.81,7.78,3.54,12.2,3.1,16.92,2.58,2.37-.26,3.12.6,2.73,2.37A102.19,102.19,0,0,1,206.83,145.31Z"
                        style="fill:#0084AC"></path>
                    <g style="opacity:0.2">
                        <path
                            d="M206.83,145.31c-5.07,12.62-8,13.86-10.21,14.28a28.75,28.75,0,0,1-11.17,0h0c-.28-.06-6.05-1.25-8.17-2.4-3.63-2-5.22-4.71-4.89-9.29.52-7.12,3.87-18,10.61-29.6v0c-.53,2.52,5.14,6,9.09,7.81,7.78,3.54,12.2,3.1,16.92,2.58,2.37-.26,3.12.6,2.73,2.37A102.19,102.19,0,0,1,206.83,145.31Z"
                            style="fill:#fff"></path>
                    </g>
                    <path
                        d="M211.74,131c.39-1.77-.36-2.63-2.73-2.37-4.72.52-9.14,1-16.92-2.58-.59-.26-1.21-.57-1.84-.9-4.92,6-10.93,21.5-11.55,32.61a58.58,58.58,0,0,0,6.74,1.79h0a28.75,28.75,0,0,0,11.17,0c2.17-.42,5.14-1.66,10.21-14.28A102.19,102.19,0,0,0,211.74,131Z"
                        style="fill:#fff;opacity:0.2"></path>
                    <path
                        d="M182.58,149.46a3.35,3.35,0,0,0,.39.52,5.15,5.15,0,0,0,1.3,1,7,7,0,0,0,3.16.83,6.27,6.27,0,0,0,2.67-.48,2.74,2.74,0,0,0,2-1.92c0-.19-.05-.55-.31-.56-.44,0-.82.33-1.2.53a7.4,7.4,0,0,1-1.12.48,6.2,6.2,0,0,1-2.34.29,6.73,6.73,0,0,1-1.93-.47,4.53,4.53,0,0,1-.84-.45,5.36,5.36,0,0,0-1.13-.71.91.91,0,0,0-.46,0,.41.41,0,0,0-.33.3A1.06,1.06,0,0,0,182.58,149.46Z"
                        style="fill:#263238"></path>
                    <path d="M190,139.35c-.16,1.61,1.22.26,2.76.41s2.69,1.72,2.84.11a2.81,2.81,0,1,0-5.6-.52Z"
                        style="fill:#263238"></path>
                    <path
                        d="M177.15,133.2c-.83,1.3.92.76,2.17,1.55s1.53,2.62,2.36,1.32a2.72,2.72,0,0,0-.77-3.78A2.75,2.75,0,0,0,177.15,133.2Z"
                        style="fill:#263238"></path>
                </g>
                <path
                    d="M220.73,182.26c-6.61,2.44-9.42,5.13-12.1,12.29-2,5.48-5.09,12-7.7,20a68.66,68.66,0,0,1-7.31-11.47c-2.89-5.84-2.35-9.2-3.74-12.68s-1-2.93-4-5.85a31.88,31.88,0,0,1-4.14-4.31,22.43,22.43,0,0,1-2.59-5.37c-1.74-1-2.86,2.63-2.31,5.14s1.25,4.57,0,8-4.9,11.78-4.9,11.78,4.3,4,6.25,5.44,3.65,4.06,6.05,11.49c2.47,7.67,5.8,17.19,8.88,23.26,4.37,8.65,8.73,11.11,13.46,7,2.17-1.87,5-6.62,8-12.51,5.32-10.52,10.18-22.3,10.18-22.3C227.36,202.42,226.7,184.32,220.73,182.26Z"
                    style="fill:#ffa8a7"></path>
                <path
                    d="M196.4,207.33l-2.46-4.62a14.27,14.27,0,0,1-3.88,7.12,23.46,23.46,0,0,1-7,5l1.44,4.5S195.86,215.77,196.4,207.33Z"
                    style="fill:#fafafa"></path>
                <path
                    d="M221.82,181.72c-6.6,2.08-9.41,3-12.71,9.7s-8.25,21.27-8.25,21.27l-4.73-6.47s.13,3.93-4.66,8.31c-5.11,4.66-7.82,4.25-7.82,4.25s5.73,17.49,8.44,22.74S200.3,254,205.93,249s9.86-13.46,15-24.95,5.34-10.53,6.2-18S228.17,184.9,221.82,181.72Z"
                    style="fill:#0084AC"></path>
                <path
                    d="M221.82,181.72c-6.6,2.08-9.41,3-12.71,9.7s-8.25,21.27-8.25,21.27l-4.73-6.47s.13,3.93-4.66,8.31c-5.11,4.66-7.82,4.25-7.82,4.25s5.73,17.49,8.44,22.74S200.3,254,205.93,249s9.86-13.46,15-24.95,5.34-10.53,6.2-18S228.17,184.9,221.82,181.72Z"
                    style="opacity:0.2"></path>
                <path
                    d="M200.86,212.69c3.33,4.72,7.84,9.83,8,19.66a19.35,19.35,0,0,0-1.74-13.94,53.19,53.19,0,0,0-5.38-8.39Z"
                    style="opacity:0.2"></path>
                <path
                    d="M177.21,181.72h0a10.53,10.53,0,0,1-.4,6.32c-.77,2.14-2.45,6.09-3.62,8.82a3.78,3.78,0,0,0,1.91,1.27c1.83.31,3-2.81,3-2.81L180,196.8c1,.3,2-.67,2-2a14.4,14.4,0,0,0-1.05-3.6c3.12.75,3.44-1.42,2.75-2.82S178.92,183,177.21,181.72Z"
                    style="fill:#f28f8f"></path>
                <path d="M181.44,196.34a8.74,8.74,0,0,1,4.41,5.14c-.59-3.07-1.25-4-3.94-6.08Z" style="fill:#f28f8f">
                </path>
                <path
                    d="M178.1,174.81c-.91.48-1.47,2.31-1.42,4a1.05,1.05,0,0,0,.84.17C179.31,178.58,178.59,176.33,178.1,174.81Z"
                    style="fill:#f28f8f"></path>
                <path
                    d="M173.86,173.36a3.33,3.33,0,0,0,.46,3.46c.67,1.16,2.35,2.85,3.29,2.13s.92-2.42.08-4.33-1.53-2.69-2.2-2.69A1.92,1.92,0,0,0,173.86,173.36Z"
                    style="fill:#ffa8a7"></path>
                <path
                    d="M171.94,180.42c-1.31,1.6-1.36,3.1,0,4.58s5.34,3.78,6.71,4.77a8.19,8.19,0,0,0,3.27,1.7,1.55,1.55,0,0,0,1.52-2.37A10.57,10.57,0,0,0,180.9,186a64.51,64.51,0,0,0-5.72-5.42C173.83,179.65,172.61,179.59,171.94,180.42Z"
                    style="fill:#ffa8a7"></path>
                <path
                    d="M174.07,186.74c-1.24-.92-2.92-1-3.59,0s-1.16,2.68,0,3.73,4.82,3.22,6,4,2.23,2.07,3.14,2.3a1.56,1.56,0,0,0,1.86-1.71,9.1,9.1,0,0,0-1.68-3.63A20.38,20.38,0,0,0,174.07,186.74Z"
                    style="fill:#ffa8a7"></path>
                <path
                    d="M168.3,195.37a4.75,4.75,0,0,1,.42-3.31c.29-.69.6-1.3,1.72-1a9.16,9.16,0,0,1,2.7,1.33,4.84,4.84,0,0,1,2.46,3.19c.48,2,.29,2.77-1,2.53s-1.5-1-3-1.88S169.24,194.69,168.3,195.37Z"
                    style="fill:#ffa8a7"></path>
                <path
                    d="M186.14,206a10.82,10.82,0,0,1-2.77,1.43,4,4,0,0,1-4.13-1.18,14.18,14.18,0,0,1,1.68,2.37h0a2.19,2.19,0,0,0,2.23.22C184.69,208.31,186.14,206,186.14,206Z"
                    style="fill:#f28f8f"></path>
                <path d="M179,206l0,0h0Z" style="fill:#f28f8f"></path>
            </g>
        </g>
    </g>
    <g id="freepik--character-1--inject-2">
        <g id="freepik--character--inject-2">
            <g id="freepik--botom--inject-2">
                <path
                    d="M83.59,361c-.18-4.42-2.73-49.3-2.73-49.3l22.36,16.11c-3.48,25.47-5,33.25-5.2,37.49h0a3.54,3.54,0,0,1,.08,1.09c-.22,5-6.31,7.55-11.11,10.74a87.53,87.53,0,0,1-12.93,7.4c-3.46,1.5-10.35,1.4-11.12-.7,5.84-3.92,12.59-8.2,17.3-12.75C82.48,368.9,83.8,366.29,83.59,361Z"
                    style="fill:#ffa8a7"></path>
                <path
                    d="M56.13,389c-.27,0-.79,3,.63,4.38,1.65,1.55,6.57,4.19,13.22,3.56s10.31-2.59,13-4.75,6.57-5.21,9.59-5.77c2.8-.52,5.87-1.7,6.79-2.54s.95-4.73.95-4.73Z"
                    style="fill:#263238"></path>
                <path
                    d="M98.11,364.06s.72,0,.86.9c.16,1.07.35,4.21.72,6,.52,2.46.93,7.52.49,9.5s-5,3.2-8,4.22a37,37,0,0,0-9.61,5.69c-3.21,2.5-9.85,4.88-14.17,4.79-6.59-.14-10.78-2.11-12-4.56-1.52-3-.94-5.14,6.76-8.43a92.05,92.05,0,0,0,8.59-4.73,25.23,25.23,0,0,0,10-11.48,3,3,0,0,1,1.15-1.57,2.41,2.41,0,0,1,1.48-.09c1.25.23,4.88.82,6,1.42s2.42,1.15,2.34,2.48a4.4,4.4,0,0,1-.33,1.33c-.1.27-.19.62,0,.79s.51,0,.71-.17a20.57,20.57,0,0,0,2.14-2.42,7.41,7.41,0,0,1,1.24-1.2,12.74,12.74,0,0,0,1.33-.81S98.06,364.68,98.11,364.06Z"
                    style="fill:#455a64"></path>
                <path
                    d="M63,382.15c9.51,1,13.49,7.27,12.29,11.8a22.52,22.52,0,0,1-6.83,1.2c-6.59-.14-11.05-2.11-12.28-4.57C54.73,387.72,56.12,384.52,63,382.15Z"
                    style="fill:#fafafa"></path>
                <path
                    d="M75.92,383.53a.43.43,0,0,0,.3-.09.5.5,0,0,0,.09-.67A11.09,11.09,0,0,0,67.82,379a.47.47,0,0,0-.43.5.46.46,0,0,0,.5.44,10.31,10.31,0,0,1,7.68,3.4A.44.44,0,0,0,75.92,383.53Z"
                    style="fill:#f0f0f0"></path>
                <path
                    d="M79.76,381.21a.41.41,0,0,0,.3-.09.48.48,0,0,0,.09-.67,11,11,0,0,0-8.48-3.76.47.47,0,0,0-.44.5.46.46,0,0,0,.5.44,10.24,10.24,0,0,1,7.68,3.4A.47.47,0,0,0,79.76,381.21Z"
                    style="fill:#f0f0f0"></path>
                <path
                    d="M83.56,378.24a.46.46,0,0,0,.3-.09.48.48,0,0,0,.09-.67,11.06,11.06,0,0,0-8.48-3.76.47.47,0,0,0,.06.94,10.3,10.3,0,0,1,7.68,3.4A.47.47,0,0,0,83.56,378.24Z"
                    style="fill:#f0f0f0"></path>
                <path
                    d="M87.31,375.26a.55.55,0,0,0,.3-.09.5.5,0,0,0,.1-.67c-1.74-2.41-5.81-4.1-9.28-3.84a.47.47,0,0,0-.43.51.46.46,0,0,0,.49.44c3.13-.24,6.93,1.32,8.47,3.46A.46.46,0,0,0,87.31,375.26Z"
                    style="fill:#f0f0f0"></path>
                <path
                    d="M124.09,325.52l23.56-3.94c.3,14-.69,32.59-1.16,45.47-.08,2.46,1,19.15.16,24.25-1.22,7.67-11.52,7-12.27,2.41s-1.11-23.89-1.24-25.9c-.31-8.4-4.81-22.6-7.86-37.6C125.13,329.47,124.23,326.24,124.09,325.52Z"
                    style="fill:#ffa8a7"></path>
                <path d="M130.66,397c0,4.48.59,7.49,2.21,10.21s5,3.74,8.45,3.17,8-2.36,9.26-6.16,1.22-6.45.71-10.64Z"
                    style="fill:#263238"></path>
                <path
                    d="M146.55,365.63c1.4.18,1.36,6,1.77,12.07.45,6.49,2.45,9.28,2.88,14.6.49,6.08,0,8.75-2.68,12.26s-11.36,6.6-15.19,1.13c-3.13-4.45-3-9.18-2.25-15.18a135.3,135.3,0,0,0,1.34-15.31c0-4.53-.67-8.76.59-9.2.05.67.09,1.52.14,2.18,0,.5,0,2.95.82,3a8.73,8.73,0,0,0,.13-1.7,1.83,1.83,0,0,1,.48-1.43,5.5,5.5,0,0,1,2.24-.69c1.41-.16,2.83-.3,4.25-.33.71,0,1.42,0,2.13,0a6.23,6.23,0,0,1,1.77.33,1.23,1.23,0,0,1,.73.66,1.78,1.78,0,0,1,0,.69,4.37,4.37,0,0,0,.09,1.25c0,.18.17.4.37.37s.25-.2.26-.35c.05-.73,0-1.26,0-2.11,0-.39,0-.76.05-1.16S146.55,366,146.55,365.63Z"
                    style="fill:#455a64"></path>
                <path
                    d="M151.36,395.82c0,3.75-.42,6.3-2.48,9.05-2.64,3.51-12,6.57-15.88,1.11-1.9-2.72-2.26-5.83-2.34-9C133.44,393.12,147.64,392.16,151.36,395.82Z"
                    style="fill:#fafafa"></path>
                <path
                    d="M134.73,390.66l.18,0a23.29,23.29,0,0,1,12.28-.4.55.55,0,0,0,.65-.31.46.46,0,0,0-.36-.58,24.1,24.1,0,0,0-13,.43.45.45,0,0,0-.29.61A.57.57,0,0,0,134.73,390.66Z"
                    style="fill:#f0f0f0"></path>
                <path
                    d="M147.14,385.7a.52.52,0,0,0,.47-.28.45.45,0,0,0-.29-.61c-6.22-2.26-12.68.22-12.95.33a.44.44,0,0,0-.26.61.56.56,0,0,0,.69.24c.06,0,6.34-2.43,12.12-.32A.83.83,0,0,0,147.14,385.7Z"
                    style="fill:#f0f0f0"></path>
                <path
                    d="M147.06,381.44a.51.51,0,0,0,.46-.27.44.44,0,0,0-.28-.61,18.19,18.19,0,0,0-13.2.28.43.43,0,0,0-.22.62.56.56,0,0,0,.71.2,17.31,17.31,0,0,1,12.3-.25A.61.61,0,0,0,147.06,381.44Z"
                    style="fill:#f0f0f0"></path>
                <path
                    d="M147,376.66a.53.53,0,0,0,.45-.27.45.45,0,0,0-.26-.62c-6.4-2.53-13,.28-13.31.41a.43.43,0,0,0-.23.62.55.55,0,0,0,.7.21c.07,0,6.47-2.75,12.41-.39A.67.67,0,0,0,147,376.66Z"
                    style="fill:#ebebeb"></path>
                <path
                    d="M139.39,217.12c0,25.39,3.51,76.25,3.51,76.25.32,3.12,4.45,16.93,4.75,28.21.47,18.11-.26,30.66-.26,30.66s-10,3.71-17.17.85c0,0-9.21-36.42-11.61-48.21-2.87-14.05-9.68-41.59-9.68-41.59l-4.8,37.1s1.5,13.22,0,24.13c-1,7.44-3.81,26.93-3.81,26.93s-9.59,3.07-17.42.57c0,0-3.15-48.43-3.61-55.29s-.41-42.33,1.27-85.59Z"
                    style="fill:#455a64"></path>
                <path
                    d="M108.93,263.29l-4-24.05a21.54,21.54,0,0,1-13.47-5.76s.63,5.54,11.35,9.09l3.67,19.95-2.35,37.87Z"
                    style="fill:#37474f"></path>
            </g>
            <g id="freepik--top--inject-2">
                <path
                    d="M51,156.76,45.1,132.11c-.9-5.13-.45-7.52.67-9.77,1.22-2.48,1.54-5.36.86-6.76-1.39-2.89-3.83-6.86-4.53-7.45-1.11-.94-3.4-.83-3.4-.83-2.83-3.75-4.46-3.87-5.62-3a2.72,2.72,0,0,0-.84,3.7,2.26,2.26,0,0,0-3.16.16c-1.7,1.56-.13,3.67-.13,3.67a2.38,2.38,0,0,0-3,.57,2.41,2.41,0,0,0,.2,3,1.82,1.82,0,0,0-2.23,1,4.13,4.13,0,0,0,0,3.82,40.84,40.84,0,0,0,2.37,4.9,18.33,18.33,0,0,0,3.48,4.94c1.24,1.16,1.36,3.69,1.83,6.5.89,6.87,4.72,30,4.72,30Z"
                    style="fill:#ffa8a7"></path>
                <path
                    d="M47.26,139.9l-1.17-4.69a14.87,14.87,0,0,1-6.08,4.7,19.51,19.51,0,0,1-8.31,1.73l.61,6.33S43.56,147.09,47.26,139.9Z"
                    style="fill:#fafafa"></path>
                <path
                    d="M38.39,111.88a15.7,15.7,0,0,1-3.16,1.76,1.83,1.83,0,0,1-2.18-.64c-.33-.44,3.19-4.57,3.19-4.57l2.46-1.13A9.9,9.9,0,0,0,36,108a30.6,30.6,0,0,0-3.47,4.24c-.54.82,1,2.81,3.2,1.75l.22-.11,0,.08a5.37,5.37,0,0,1,.46,2.68c-.06.56-.13,1.22-.8,1.33a1.58,1.58,0,0,1-.88-.17,3.42,3.42,0,0,1-.61-.37,1.57,1.57,0,0,0-.54-.35s0,0-.05,0,0,.08,0,.12c.11.32.24.63.36.94.34.95.54,2.5-.65,2.91a1.85,1.85,0,0,1-1.72-.22c-.38-.26-.7-.58-1.1-.81-.07,0-.19-.06-.21,0a.1.1,0,0,0,0,.09,6.89,6.89,0,0,1,.74,2.17,1.62,1.62,0,0,1-.4,1.37,2,2,0,0,1-1.86,0l-.25-.11s0,0,0,0a.35.35,0,0,0,.05.08,4.27,4.27,0,0,0,.38.36,1.79,1.79,0,0,0,2.33-.25,1.93,1.93,0,0,0,.43-2.1,2.25,2.25,0,0,0,2.24.26c1.67-.57,1.47-1.9,1-3.23a1.91,1.91,0,0,0,1,.06,13.29,13.29,0,0,0-1.08,6.77,21.4,21.4,0,0,1,2.49-7.35,19.33,19.33,0,0,1,3.92-4.69S38.77,112.76,38.39,111.88Zm-.54,3.37a1.39,1.39,0,0,1-.19-.06,2.2,2.2,0,0,1-.54-.47,9.79,9.79,0,0,0-.82-1c1.69-.83,2.18-1.15,2.18-1.15a2,2,0,0,0,1.06.56A17.21,17.21,0,0,0,37.85,115.25Z"
                    style="fill:#f28f8f"></path>
                <path
                    d="M90.17,139.13a40.54,40.54,0,0,0-11.45,3.69,78,78,0,0,0-12,6.93C59.8,154.27,53.49,158,53.49,158l-6.23-19.79c-2.11,3.81-9.23,7.19-14.87,7.88,0,0,3,24.71,5.33,32.11C39.46,183.75,44,184.87,50,183c3.84-1.17,30.16-12.83,37.45-16.37C87.46,166.67,91.82,141.81,90.17,139.13Z"
                    style="fill:#0084AC"></path>
                <path
                    d="M90.17,139.13a40.54,40.54,0,0,0-11.45,3.69,78,78,0,0,0-12,6.93C59.8,154.27,53.49,158,53.49,158l-6.23-19.79c-2.11,3.81-9.23,7.19-14.87,7.88,0,0,3,24.71,5.33,32.11C39.46,183.75,44,184.87,50,183c3.84-1.17,30.16-12.83,37.45-16.37C87.46,166.67,91.82,141.81,90.17,139.13Z"
                    style="opacity:0.2"></path>
                <path
                    d="M83.91,157.85c.63-4.54,1.07-10.69,4.33-14.49,3.18-2.89,9.09-5.09,14.87-7.39l15.07,1.15c4.42,1.15,20.91,6.27,20.91,6.27l1,35.84s1.1,23,.76,38C128,225.39,100.06,228,82.5,214.7,82,202.3,82.69,166.74,83.91,157.85Z"
                    style="fill:#f0f0f0"></path>
                <path
                    d="M91.58,102.17c-1.81-5.39,1-12.07,4-15.07,4.31-4.33,10.57-5.81,19.68-4.44,6.93,1,13.54,4.53,14.22,11.79,5.45,2.16,4,11.31,2.27,15.24-3.55,8-9.73,14.67-10.19,18.87Z"
                    style="fill:#263238"></path>
                <path d="M103.08,130.21v7.15c-6.16,8.81,13,9.52,19.59-.1l-.17-16.41" style="fill:#ffa8a7"></path>
                <path
                    d="M131.83,111.82c-1.5-4-5.32-2.76-6.56-1.68s-2.75,3.18-3.66,2.79a3.42,3.42,0,0,1-2.08-2.53,20.74,20.74,0,0,1-.55-7.62,8.47,8.47,0,0,1-2.43-2.26c-1.43-1.9-1.37-4-1.27-5.93-7.73-3.18-18-3-21.47-.78-2.2,3.18-2.94,11-3.65,15.41a36.93,36.93,0,0,0-.26,12.32c.75,4.07,2.8,7.19,6.43,8.08a30.9,30.9,0,0,0,5.8.54c11.69.5,18.48-2.43,20.37-9.31,0,0,2,2.75,5.95.66A8.14,8.14,0,0,0,131.83,111.82Z"
                    style="fill:#ffa8a7"></path>
                <path
                    d="M106.62,108c-.45,1,.77.39,1.73.88s1.28,1.83,1.73.87a2,2,0,0,0-.92-2.6A1.85,1.85,0,0,0,106.62,108Z"
                    style="fill:#263238"></path>
                <path
                    d="M93.09,106.67c-.06,1.06.87.08,1.93.16s1.88,1.22,1.94.16a2,2,0,0,0-1.83-2.07A1.87,1.87,0,0,0,93.09,106.67Z"
                    style="fill:#263238"></path>
                <path d="M92.55,102.74l4.5-1A2.21,2.21,0,0,0,94.4,100,2.42,2.42,0,0,0,92.55,102.74Z"
                    style="fill:#263238"></path>
                <path d="M108.68,103.14l4,2.53a2.3,2.3,0,0,0-.68-3.26A2.51,2.51,0,0,0,108.68,103.14Z"
                    style="fill:#263238"></path>
                <path d="M107,117.36l-6.82,2.29a3.53,3.53,0,0,0,4.79,2.46C106.79,121.4,107.47,119.46,107,117.36Z"
                    style="fill:#b16668"></path>
                <path
                    d="M104.93,122.11a3.85,3.85,0,0,1-1.58.25,3.49,3.49,0,0,1,3.52-3l.19,0A3.32,3.32,0,0,1,104.93,122.11Z"
                    style="fill:#f28f8f"></path>
                <polygon points="102.33 105.67 100.34 116.41 94.78 113.74 102.33 105.67" style="fill:#f28f8f"></polygon>
                <path
                    d="M103.08,130.21c4.08-.25,9.28-.92,12-2.54a18.15,18.15,0,0,0,4.61-4.66,11.94,11.94,0,0,1-3.07,5.55c-2.17,2.22-3.75,2.45-6.34,3.11a63.37,63.37,0,0,1-7.16,1.11Z"
                    style="fill:#f28f8f"></path>
                <path
                    d="M79.78,170.24c1.64-15,5.54-25.59,9.71-31,3.87-1.09,6.79-2,13.31-3.71v.6A13.89,13.89,0,0,0,99.44,140c-1.84,2.76-4,7.47-6.16,15.58-2.9,11.05-4.36,35.66-4.51,49s-1,34.12-1,34.12-7.64-1.23-10.47-5.16C77.3,233.48,78.55,181.55,79.78,170.24Z"
                    style="fill:#0084AC"></path>
                <path
                    d="M89.09,193.84c-1.8-8.46-5.36-11.41-5-14.34s6.14-12.42,6.14-12.42a25.85,25.85,0,0,1-3.12-2.62c-.83-1.35,1.07-8.4,5.55-16.42,3.88-6.94,5.86-13.08,10.4-15.26l0,4.58s-2.83,1.74-8,19.15C91.59,168.27,90.47,180.73,89.09,193.84Z"
                    style="fill:#455a64"></path>
                <path
                    d="M117.94,152.08a131.23,131.23,0,0,1,5.31-16.87,30.36,30.36,0,0,0,3.81,1.31,5,5,0,0,0,4.73-.66c4.62,2.13,15.82,11.21,14.66,19l-4.88,34.23,1.4,43.45c-7.17,11.14-30.07,10.08-30.07,10.08s-.51-15.72.18-46.37C113.46,179.08,116.12,159.8,117.94,152.08Z"
                    style="fill:#0084AC"></path>
                <path
                    d="M122.61,131.3l0,2.9c-1.11,2.86-3.67,10.08-4.36,12.87-2,8.15-5.23,19.92-5.19,49.18,1.88-9.94,8.76-11.15,9-13.62s-3.6-10.77-4.06-12.53,4.13-.91,5.51-2.48,3.5-31.1,3.5-31.1a7.12,7.12,0,0,1-2.27-2.62C123.85,132.11,123.57,131.65,122.61,131.3Z"
                    style="fill:#455a64"></path>
                <path
                    d="M184.64,51.39a1.78,1.78,0,0,0-2.34-.65,2.41,2.41,0,0,0-.29-3,2.35,2.35,0,0,0-3-.08s1.2-2.33-.71-3.58a2.24,2.24,0,0,0-3.13.34A2.69,2.69,0,0,0,173.77,41c-1.28-.69-2.86-.3-5,3.82,0,0-2.25.26-3.2,1.36-.59.69-2.35,5-3.25,8-.44,1.48-.31,3.26,1.47,6.43,1.35,2.41,2.18,4.81,2.11,10l-6.42,27,17.88,8s1.61-30.11,1.92-32.56c.55-4.51,1.11-6,2.15-7.34s1.4-2.55,2.35-5.26a31,31,0,0,0,1.47-5.24A4.35,4.35,0,0,0,184.64,51.39Z"
                    style="fill:#ffa8a7"></path>
                <path
                    d="M162.21,83.82l1.24-5.67s2.49,2,7.67,2.41a22.59,22.59,0,0,0,7.85-.39l-.3,6.36S169.55,89.72,162.21,83.82Z"
                    style="fill:#fafafa"></path>
                <path
                    d="M167.25,51.26a19.15,19.15,0,0,1,4.6,4,21.38,21.38,0,0,1,3.61,6.81,13.17,13.17,0,0,0-2.15-6.47,2,2,0,0,0,1-.22c-.22,1.37-.19,2.7,1.53,3a2.19,2.19,0,0,0,2.15-.61,1.94,1.94,0,0,0,.76,2,1.78,1.78,0,0,0,2.32-.13,2.59,2.59,0,0,0,.32-.42.2.2,0,0,0,0-.08s0,0-.05,0l-.22.15a2,2,0,0,1-1.83.32,1.63,1.63,0,0,1-.61-1.28,7,7,0,0,1,.39-2.24.14.14,0,0,0,0-.09c0-.07-.14,0-.21,0-.35.28-.62.66-1,1a1.82,1.82,0,0,1-1.65.49c-1.23-.21-1.29-1.77-1.1-2.75.07-.33.15-.65.2-1,0,0,0-.11-.05-.12l0,0a1.49,1.49,0,0,0-.48.42,2.87,2.87,0,0,1-.53.46,1.63,1.63,0,0,1-.84.31c-.67,0-.85-.64-1-1.18a5.22,5.22,0,0,1,0-2.69.28.28,0,0,0,0-.09l.24.07c2.32.7,3.52-1.5,2.85-2.23s-3.5-3.67-4.3-3.92a5.9,5.9,0,0,0-2.59,0l2.42.27s4.15,3.72,4,4.25a1.7,1.7,0,0,1-2,1.14,15.08,15.08,0,0,1-3.38-1.21C169.53,50.14,167.25,51.26,167.25,51.26Zm1.59-.63a2,2,0,0,0,.95-.71s.53.23,2.32.77a11.11,11.11,0,0,0-.65,1.11,2.12,2.12,0,0,1-.45.54.56.56,0,0,1-.17.09A18.34,18.34,0,0,0,168.84,50.63Z"
                    style="fill:#f28f8f"></path>
                <path
                    d="M131.79,135.86a81.05,81.05,0,0,1,8.82-6.65c3.72-2.53,15.22-19.09,15.22-19.09l6.38-28.67c2.1,3,12.42,4.31,16.76,2.74,0,0,.09,10.84-.92,25.54-.47,6.87-1.11,7.63-6.7,17.43-3.09,5.42-7.61,11.48-13.13,20.78-4.18,7-12.28,19.59-14.35,25-.56,1.46-.88,3.49-3,3.21-3.18-.44-7.09-11.39-8.6-16.22C129.44,150.77,130.67,139.69,131.79,135.86Z"
                    style="fill:#0084AC"></path>
                <path
                    d="M131.79,135.86a81.05,81.05,0,0,1,8.82-6.65c3.72-2.53,15.22-19.09,15.22-19.09l6.38-28.67c2.1,3,12.42,4.31,16.76,2.74,0,0,.09,10.84-.92,25.54-.47,6.87-1.11,7.63-6.7,17.43-3.09,5.42-7.61,11.48-13.13,20.78-4.18,7-12.28,19.59-14.35,25-.56,1.46-.88,3.49-3,3.21-3.18-.44-7.09-11.39-8.6-16.22C129.44,150.77,130.67,139.69,131.79,135.86Z"
                    style="opacity:0.2"></path>
            </g>
        </g>
    </g>
    <g id="freepik--Sun--inject-2">
        <g id="freepik--sun--inject-2">
            <circle cx="71.23" cy="50.04" r="15.3" transform="translate(-14.52 65.03) rotate(-45)" style="fill:#0084AC">
            </circle>
            <path
                d="M71.23,30.72a1.38,1.38,0,0,1-1.38-1.39V20.46a1.39,1.39,0,0,1,2.77,0v8.87A1.39,1.39,0,0,1,71.23,30.72Z"
                style="fill:#37474f"></path>
            <path
                d="M60.88,33.49a1.39,1.39,0,0,1-1.2-.69l-4.44-7.68a1.39,1.39,0,1,1,2.41-1.39l4.43,7.68a1.38,1.38,0,0,1-1.2,2.08Z"
                style="fill:#37474f"></path>
            <path
                d="M53.3,41.07a1.45,1.45,0,0,1-.69-.18l-7.68-4.44a1.38,1.38,0,0,1,1.38-2.4L54,38.48a1.39,1.39,0,0,1-.69,2.59Z"
                style="fill:#37474f"></path>
            <path d="M50.53,51.43H41.66a1.39,1.39,0,1,1,0-2.78h8.87a1.39,1.39,0,0,1,0,2.78Z" style="fill:#37474f">
            </path>
            <path
                d="M45.62,66.21a1.39,1.39,0,0,1-.69-2.59l7.68-4.43A1.38,1.38,0,1,1,54,61.59L46.31,66A1.39,1.39,0,0,1,45.62,66.21Z"
                style="fill:#37474f"></path>
            <path
                d="M56.44,77a1.36,1.36,0,0,1-.69-.19A1.39,1.39,0,0,1,55.24,75l4.44-7.68a1.38,1.38,0,0,1,2.4,1.38l-4.43,7.68A1.4,1.4,0,0,1,56.44,77Z"
                style="fill:#37474f"></path>
            <path d="M71.23,81a1.38,1.38,0,0,1-1.38-1.39V70.74a1.39,1.39,0,0,1,2.77,0v8.87A1.39,1.39,0,0,1,71.23,81Z"
                style="fill:#37474f"></path>
            <path
                d="M86,77a1.38,1.38,0,0,1-1.2-.7l-4.43-7.68a1.38,1.38,0,0,1,.5-1.89,1.39,1.39,0,0,1,1.9.51L87.22,75a1.37,1.37,0,0,1-.51,1.89A1.31,1.31,0,0,1,86,77Z"
                style="fill:#37474f"></path>
            <path
                d="M96.85,66.21a1.46,1.46,0,0,1-.7-.18l-7.68-4.44a1.39,1.39,0,1,1,1.39-2.4l7.68,4.43a1.39,1.39,0,0,1-.69,2.59Z"
                style="fill:#37474f"></path>
            <path d="M100.81,51.43H91.94a1.39,1.39,0,0,1,0-2.78h8.87a1.39,1.39,0,0,1,0,2.78Z" style="fill:#37474f">
            </path>
            <path
                d="M89.17,41.07a1.39,1.39,0,0,1-.7-2.59l7.68-4.43a1.39,1.39,0,1,1,1.39,2.4l-7.68,4.44A1.45,1.45,0,0,1,89.17,41.07Z"
                style="fill:#37474f"></path>
            <path
                d="M81.59,33.49a1.46,1.46,0,0,1-.7-.18,1.39,1.39,0,0,1-.5-1.9l4.43-7.68a1.39,1.39,0,1,1,2.4,1.39L82.79,32.8A1.39,1.39,0,0,1,81.59,33.49Z"
                style="fill:#37474f"></path>
        </g>
    </g>
    <g id="freepik--Clouds--inject-2">
        <g id="freepik--clouds--inject-2">
            <path
                d="M383.16,35.49h4.27a17.91,17.91,0,0,1,34.21-4h4.27A11.19,11.19,0,0,1,437.1,42.67v2.47h2.32a6,6,0,0,1,0,12H383.16a10.81,10.81,0,0,1,0-21.61Z"
                style="fill:#37474f"></path>
            <path
                d="M343.15,61.29h2.63a11,11,0,0,1,21-2.46h2.62a6.88,6.88,0,0,1,6.88,6.87v1.52h1.42a3.68,3.68,0,1,1,0,7.35H343.15a6.64,6.64,0,1,1,0-13.28Z"
                style="fill:#455a64"></path>
            <polygon
                points="402.02 37.85 410.39 37.85 403.62 48.39 408.51 48.39 396.19 63.63 400.7 52.24 395.72 52.24 402.02 37.85"
                style="fill:#0084AC"></polygon>
            <polygon
                points="402.02 37.85 410.39 37.85 403.62 48.39 408.51 48.39 396.19 63.63 400.7 52.24 395.72 52.24 402.02 37.85"
                style="fill:#fff;opacity:0.4"></polygon>
            <polygon
                points="414.23 52.12 421.03 52.12 415.53 60.68 419.5 60.68 409.49 73.05 413.16 63.81 409.11 63.81 414.23 52.12"
                style="fill:#0084AC"></polygon>
            <polygon
                points="414.23 52.12 421.03 52.12 415.53 60.68 419.5 60.68 409.49 73.05 413.16 63.81 409.11 63.81 414.23 52.12"
                style="fill:#fff;opacity:0.4"></polygon>
            <polygon
                points="353.68 69.43 360.48 69.43 354.98 77.98 358.95 77.98 348.94 90.36 352.61 81.11 348.56 81.11 353.68 69.43"
                style="fill:#0084AC"></polygon>
            <polygon
                points="353.68 69.43 360.48 69.43 354.98 77.98 358.95 77.98 348.94 90.36 352.61 81.11 348.56 81.11 353.68 69.43"
                style="fill:#fff;opacity:0.4"></polygon>
        </g>
    </g>
</svg>