<?xml version="1.0" standalone="no"?>
<!DOCTYPE svg PUBLIC "-//W3C//DTD SVG 20010904//EN"
 "http://www.w3.org/TR/2001/REC-SVG-20010904/DTD/svg10.dtd">
<svg version="1.0" xmlns="http://www.w3.org/2000/svg"
 width="225.000000pt" height="225.000000pt" viewBox="0 0 225.000000 225.000000"
 preserveAspectRatio="xMidYMid meet">
<metadata>
Created by potrace 1.16, written by Peter Selinger 2001-2019
</metadata>
<g transform="translate(0.000000,225.000000) scale(0.100000,-0.100000)"
fill="#000000" stroke="none">
<path d="M1269 2129 c-297 -31 -557 -251 -651 -549 -20 -64 -23 -96 -23 -220
0 -124 3 -156 23 -220 30 -93 68 -169 121 -240 l41 -54 -46 -47 -45 -46 -52
15 c-69 19 -119 5 -181 -49 -40 -35 -47 -46 -44 -73 2 -26 8 -32 31 -34 22 -3
39 6 72 37 55 51 90 54 137 12 27 -24 33 -36 33 -70 0 -40 -5 -46 -173 -213
-167 -168 -173 -173 -213 -173 -34 0 -46 6 -71 34 -50 55 -38 85 82 206 98
100 114 127 88 153 -28 28 -55 11 -160 -96 -116 -119 -137 -161 -119 -242 26
-114 158 -177 262 -125 45 23 334 309 364 360 32 56 38 93 22 147 l-15 46 49
48 48 47 43 -37 c58 -50 186 -112 282 -136 148 -37 353 -22 491 37 65 27 176
101 229 151 308 296 323 778 34 1087 -73 79 -130 122 -226 169 -128 65 -280
91 -433 75z m266 -105 c335 -86 561 -430 504 -767 -40 -229 -175 -414 -374
-511 -102 -50 -184 -69 -300 -69 -121 0 -199 18 -315 74 -109 54 -236 177
-292 284 -180 345 -52 756 292 934 152 79 317 98 485 55z"/>
<path d="M1290 1950 c-109 -15 -179 -42 -268 -102 -35 -24 -43 -35 -40 -55 5
-43 32 -52 76 -25 90 56 161 83 248 95 87 13 89 14 92 42 4 29 -19 57 -42 54
-6 -1 -36 -5 -66 -9z"/>
<path d="M893 1722 c-20 -12 -83 -124 -83 -147 0 -27 18 -45 47 -45 17 0 28
11 44 43 12 23 30 54 40 69 23 32 24 52 3 72 -17 17 -32 20 -51 8z"/>
<path d="M1300 1523 c-23 -8 -70 -55 -86 -85 -37 -72 -1 -174 75 -215 42 -22
43 -23 15 -23 -38 0 -94 -35 -94 -58 0 -35 18 -40 125 -34 l104 5 30 -31 c27
-26 31 -38 31 -84 0 -58 12 -78 45 -78 26 0 45 18 45 41 0 52 145 69 221 27
l40 -23 19 22 c10 13 16 31 13 43 -7 25 -57 56 -105 65 l-37 7 41 22 c48 25
88 90 88 140 0 18 -10 52 -22 76 -56 111 -205 120 -281 18 -52 -70 -20 -194
60 -234 l42 -22 -32 -5 c-18 -3 -39 -8 -47 -11 -10 -4 -19 4 -28 24 -17 38
-75 79 -125 87 l-38 6 38 21 c109 62 120 204 20 277 -32 23 -50 29 -91 28 -28
0 -58 -3 -66 -6z m123 -116 c32 -42 6 -99 -50 -113 -36 -9 -77 24 -81 65 -8
83 81 116 131 48z m336 -93 c28 -35 26 -69 -4 -99 -30 -30 -64 -32 -99 -4 -54
42 -21 129 49 129 24 0 39 -7 54 -26z"/>
<path d="M934 1386 c-50 -31 -74 -77 -74 -144 0 -62 30 -109 87 -138 l42 -21
-39 -6 c-56 -7 -102 -42 -98 -75 5 -38 31 -50 67 -29 21 12 51 17 104 17 108
0 116 -9 119 -129 3 -86 5 -94 25 -102 13 -5 27 -3 38 5 15 10 18 34 20 157 1
85 -2 149 -7 157 -12 15 -50 16 -64 2 -6 -6 -30 -7 -57 -4 l-46 7 42 21 c57
29 87 76 87 138 0 101 -53 159 -149 165 -46 3 -63 0 -97 -21z m138 -83 c37
-42 28 -101 -19 -122 -35 -16 -49 -14 -79 12 -33 28 -37 76 -9 107 23 26 86
27 107 3z"/>
</g>
</svg>
