<svg height="512pt" viewBox="0 0 512 512" width="512pt" xmlns="http://www.w3.org/2000/svg" xmlns:xlink="http://www.w3.org/1999/xlink"><linearGradient id="a" gradientTransform="matrix(.670906 0 0 -.670906 0 495.66887)" gradientUnits="userSpaceOnUse" x1="3.3865" x2="914.059" y1="357.2318" y2="357.2318"><stop offset="0" stop-color="#e93e3a"/><stop offset=".354" stop-color="#ed683c"/><stop offset=".705" stop-color="#f3903f"/><stop offset="1" stop-color="#fdc70c"/></linearGradient><g fill="url(#a)"><path d="m256 0c-141.386719 0-256 114.613281-256 256 0 141.382812 114.613281 256 256 256 141.382812 0 256-114.617188 256-256-.167969-141.316406-114.683594-255.832031-256-256zm0 480c-123.710938 0-224-100.289062-224-224s100.289062-224 224-224 224 100.289062 224 224c-.132812 123.65625-100.34375 223.867188-224 224zm0 0"/><path d="m416 240h-144v-144c0-8.835938-7.164062-16-16-16s-16 7.164062-16 16v144h-144c-8.835938 0-16 7.164062-16 16s7.164062 16 16 16h144v144c0 8.835938 7.164062 16 16 16s16-7.164062 16-16v-144h144c8.835938 0 16-7.164062 16-16s-7.164062-16-16-16zm0 0"/></g></svg>