<svg xmlns="http://www.w3.org/2000/svg" width="48.412" height="48.412" viewBox="0 0 48.412 48.412">
  <path id="Icon_awesome-plus" data-name="Icon awesome-plus"
    d="M44.954,21.269H29.393V5.708A3.458,3.458,0,0,0,25.935,2.25H22.477a3.458,3.458,0,0,0-3.458,3.458V21.269H3.458A3.458,3.458,0,0,0,0,24.727v3.458a3.458,3.458,0,0,0,3.458,3.458H19.019V47.2a3.458,3.458,0,0,0,3.458,3.458h3.458A3.458,3.458,0,0,0,29.393,47.2V31.643H44.954a3.458,3.458,0,0,0,3.458-3.458V24.727A3.458,3.458,0,0,0,44.954,21.269Z"
    transform="translate(0 -2.25)" fill="#0084AC" />
</svg>