<?xml version="1.0" standalone="no"?>
<!DOCTYPE svg PUBLIC "-//W3C//DTD SVG 20010904//EN"
 "http://www.w3.org/TR/2001/REC-SVG-20010904/DTD/svg10.dtd">
<svg version="1.0" xmlns="http://www.w3.org/2000/svg"
 width="497.000000pt" height="502.000000pt" viewBox="0 0 497.000000 502.000000"
 preserveAspectRatio="xMidYMid meet">

<g transform="translate(0.000000,502.000000) scale(0.100000,-0.100000)"
fill="#0084AC" stroke="none">
<path d="M2164 4835 c-428 -49 -831 -208 -1179 -465 -49 -36 -97 -73 -105 -81
-8 -8 -55 -49 -103 -93 -106 -95 -260 -277 -355 -418 -226 -337 -369 -736
-403 -1128 -17 -186 -17 -231 -1 -423 40 -491 219 -939 529 -1324 l74 -92 -25
-49 c-98 -194 -267 -358 -474 -461 -78 -39 -122 -81 -122 -114 0 -33 36 -76
80 -96 80 -37 133 -51 260 -71 152 -24 209 -25 353 -4 191 28 391 107 537 213
l71 52 87 -41 c245 -117 497 -188 782 -220 215 -24 260 -24 455 -5 209 21 224
23 373 61 230 58 385 118 587 227 588 319 1028 890 1189 1547 43 175 57 288
63 495 12 447 -56 763 -247 1150 -244 495 -611 863 -1105 1105 -411 203 -879
286 -1321 235z m531 -201 c243 -29 464 -94 690 -204 727 -352 1209 -1063 1254
-1852 30 -518 -91 -971 -371 -1393 -34 -49 -63 -92 -67 -95 -3 -3 -32 -36 -63
-75 -297 -365 -704 -625 -1168 -744 -432 -111 -878 -89 -1302 64 -84 30 -134
53 -261 116 -54 27 -111 49 -126 49 -17 0 -43 -13 -67 -33 -212 -179 -429
-262 -691 -262 -67 0 -125 4 -130 8 -4 5 10 23 32 40 141 111 267 264 345 420
78 154 78 188 1 271 -127 136 -246 314 -341 510 -94 196 -148 357 -192 576
-21 104 -23 142 -23 395 0 308 10 386 74 610 221 764 833 1358 1596 1549 96
24 166 37 305 55 109 14 366 12 505 -5z"/>
<path d="M3593 3450 c-82 -37 -94 -100 -22 -121 21 -7 39 -16 39 -20 0 -4 -22
-15 -50 -24 -27 -9 -50 -20 -50 -25 0 -5 21 -15 48 -23 45 -13 49 -13 103 14
112 55 120 99 23 124 l-48 12 60 28 59 27 -30 14 c-41 18 -82 16 -132 -6z"/>
<path d="M3523 3173 c-4 -21 -8 -171 -8 -333 1 -320 12 -441 60 -617 50 -186
139 -328 242 -382 42 -21 43 -11 9 63 -92 202 -128 489 -125 994 1 144 0 265
-3 267 -6 6 -143 45 -157 45 -6 0 -14 -17 -18 -37z"/>
<path d="M1052 2820 c-18 -4 -36 -10 -39 -14 -16 -15 -34 -144 -40 -277 -7
-167 -15 -152 92 -164 33 -3 73 -8 89 -12 l29 -5 -7 75 c-7 76 1 207 13 207 3
0 15 -21 25 -48 29 -71 82 -139 134 -169 40 -24 43 -28 28 -37 -50 -30 -217
-169 -262 -219 -67 -73 -97 -136 -102 -214 -7 -109 35 -182 130 -223 159 -69
362 -15 560 149 95 78 134 124 123 141 -4 6 -30 24 -58 40 l-52 29 -40 -38
c-108 -105 -245 -187 -356 -215 -101 -25 -109 -22 -109 47 1 134 192 308 512
465 75 37 137 72 138 78 0 17 -118 124 -138 124 -9 0 -42 -12 -72 -26 -98 -46
-95 -46 -139 -13 -62 44 -112 128 -137 228 -18 73 -25 87 -45 92 -33 10 -237
9 -277 -1z"/>
<path d="M2910 2570 c0 -6 8 -27 19 -48 34 -68 71 -201 71 -259 0 -126 -64
-186 -200 -187 -66 -1 -84 3 -142 32 -116 57 -209 169 -251 302 -17 56 -26 70
-42 70 -11 1 -69 7 -128 14 -59 7 -110 9 -113 5 -5 -9 51 -170 81 -229 118
-232 362 -363 650 -347 157 9 264 55 326 140 64 88 66 289 5 422 l-23 52 -84
16 c-143 27 -169 30 -169 17z"/>
<path d="M1457 2145 c-61 -23 -97 -53 -97 -82 0 -38 29 -91 62 -115 l30 -21
69 34 c38 18 69 34 69 36 0 1 -16 23 -35 48 -19 25 -37 61 -41 80 -7 39 -5 39
-57 20z"/>
<path d="M2726 1795 c-82 -34 -91 -44 -76 -89 15 -46 71 -106 98 -106 11 0 50
14 86 30 l66 31 -29 37 c-16 20 -39 56 -51 80 -12 23 -25 42 -29 42 -3 0 -33
-11 -65 -25z"/>
</g>
</svg>
