<svg xmlns="http://www.w3.org/2000/svg" width="17" height="22.294" viewBox="0 0 17 22.294">
  <path id="Icon_map-city-hall" data-name="Icon map-city-hall"
    d="M5.13,10.381H6.748v10.4H9.177V11.867h2.429v8.918h2.428V11.867h2.429v8.918h2.429v-10.4H20.51a.779.779,0,0,0,.81-.743.723.723,0,0,0-.338-.6h0l-.012-.007-.021-.013-7.726-4V3.846c1.427.656,2.6-.474,4.452.205V1.464c-1.851-.679-3.025.45-4.452-.206V1.092a.406.406,0,0,0-.809,0V5.017l-7.726,4-.021.013-.012.008h0a.724.724,0,0,0-.336.6.778.778,0,0,0,.809.743Zm.809,11.147L4.32,23.014h17L19.7,21.528Z"
    transform="translate(-4.32 -0.72)" fill="#0084AC" />
</svg>