<?xml version="1.0" standalone="no"?>
<!DOCTYPE svg PUBLIC "-//W3C//DTD SVG 20010904//EN"
 "http://www.w3.org/TR/2001/REC-SVG-20010904/DTD/svg10.dtd">
<svg version="1.0" xmlns="http://www.w3.org/2000/svg"
 width="228.000000pt" height="221.000000pt" viewBox="0 0 228.000000 221.000000"
 preserveAspectRatio="xMidYMid meet">
<metadata>
Created by potrace 1.16, written by Peter Selinger 2001-2019
</metadata>
<g transform="translate(0.000000,221.000000) scale(0.100000,-0.100000)"
fill="#000000" stroke="none">
<path d="M1062 2199 c-203 -26 -374 -144 -458 -313 l-39 -80 -3 -145 c-3 -129
-6 -147 -22 -158 -47 -33 -43 -147 8 -251 26 -54 72 -102 97 -102 7 0 44 -48
81 -107 36 -60 82 -129 100 -154 33 -46 34 -47 20 -86 -35 -99 -54 -123 -120
-153 -35 -16 -148 -50 -252 -75 -104 -25 -215 -58 -246 -72 -106 -47 -190
-167 -218 -310 -15 -76 -7 -123 25 -156 35 -34 59 -37 291 -37 188 0 204 1
204 18 0 9 -16 129 -35 267 -19 137 -35 252 -35 256 0 4 23 9 52 13 28 4 96
23 152 42 56 19 108 37 117 40 11 4 21 -7 34 -35 27 -61 98 -129 170 -162 123
-58 261 -48 371 26 57 39 86 75 114 140 11 25 21 45 23 45 2 0 33 -13 68 -29
35 -16 108 -40 161 -52 83 -21 98 -27 98 -44 0 -11 -9 -117 -20 -235 -11 -118
-20 -232 -20 -252 l0 -38 189 0 c217 0 242 3 276 37 32 33 40 80 25 156 -28
144 -112 263 -218 310 -32 15 -143 47 -247 72 -240 58 -298 84 -359 162 -25
32 -46 61 -46 65 0 4 22 36 49 71 54 72 201 314 221 365 22 56 17 112 -13 138
-25 21 -25 23 -29 201 l-3 179 -33 66 c-134 272 -568 331 -804 110 -95 -88
-128 -177 -128 -342 0 -89 -1 -93 -16 -72 -13 19 -15 46 -13 145 4 110 7 128
33 180 41 84 131 177 215 221 218 114 499 79 662 -83 39 -39 71 -84 92 -128
29 -63 32 -77 37 -202 4 -113 8 -136 23 -145 12 -8 22 -8 35 0 25 17 24 235
-2 314 -40 120 -107 209 -212 279 -81 55 -165 86 -269 101 -79 11 -94 11 -183
-1z m142 -641 c134 -32 191 -41 263 -42 51 -1 93 -3 93 -5 0 -2 -6 -29 -14
-60 -30 -123 -33 -111 24 -111 89 0 82 -34 -52 -259 -155 -260 -243 -330 -397
-319 -83 6 -132 31 -198 101 -47 49 -155 205 -170 244 -4 9 19 -5 51 -31 99
-81 216 -126 329 -126 73 0 108 46 72 97 -29 41 -150 38 -174 -4 -8 -14 -18
-12 -82 19 -109 51 -170 114 -203 208 -31 90 -31 90 -5 90 19 0 20 4 15 53
-20 167 -26 151 53 172 94 27 210 19 395 -27z m-266 -788 c56 -44 116 -63 207
-64 72 -1 88 2 149 33 37 18 71 29 75 25 80 -98 83 -104 71 -135 -19 -45 -88
-112 -145 -139 -72 -35 -198 -40 -276 -11 -63 24 -136 83 -169 137 l-22 35 33
74 c18 41 34 75 36 75 2 0 21 -13 41 -30z"/>
</g>
</svg>
