<svg xmlns="http://www.w3.org/2000/svg" version="1.1" xmlns:xlink="http://www.w3.org/1999/xlink" width="512" height="512" x="0" y="0" viewBox="0 0 64 64" style="enable-background:new 0 0 512 512" xml:space="preserve" class=""><g><path fill="#e5e5e5" d="M44.75 43.997v6c-10.76 2.67-22 2.67-32.75 0v-6c.04-8.43 8.31-13.91 16.1-14 7.85-.08 16.31 5.1 16.64 13.61 0 .13.01.26.01.39z" opacity="1" data-original="#00b5ff" class=""></path><path fill="#e5e5e5" d="M37.75 20.997c0 1.09-.2 2.18-.59 3.2-1.63 4.3-6.42 6.71-10.85 5.47-4.43-1.25-7.25-5.8-6.41-10.32.83-4.52 5.11-7.73 9.68-7.31s8.17 4.38 8.17 8.96z" opacity="1" data-original="#00b5ff" class=""></path><path fill="#ff0100" d="M44.44 32.297c-4.42-1.11-9.16 1-11.29 5.03-2.13 4.05-1.18 9.17 2.25 12.19 3.44 3.01 8.65 3.29 12.38.64 2.63-1.86 4.22-4.94 4.22-8.16 0-4.53-3.16-8.6-7.56-9.7z" opacity="1" data-original="#e2e2e2" class=""></path><path fill="#e5e5e5" d="m44.48 37.407 2.12 2.12-2.48 2.47 2.48 2.48-2.12 2.12-2.48-2.48-2.47 2.48-2.12-2.12 2.47-2.48-2.48-2.47 2.13-2.13 2.47 2.48z" opacity="1" data-original="#ef3d3c" class=""></path></g></svg>