<?xml version="1.0" standalone="no"?>
<!DOCTYPE svg PUBLIC "-//W3C//DTD SVG 20010904//EN" "http://www.w3.org/TR/2001/REC-SVG-20010904/DTD/svg10.dtd">
<svg version="1.0" xmlns="http://www.w3.org/2000/svg" width="355.000000pt" height="358.000000pt"
    viewBox="0 0 355.000000 358.000000" preserveAspectRatio="xMidYMid meet">

    <g transform="translate(0.000000,358.000000) scale(0.100000,-0.100000)" fill="#0084AC" stroke="none">
        <path d="M1504 3439 c-394 -52 -738 -228 -1019 -521 -250 -260 -402 -566 -460
-923 -30 -184 -15 -510 31 -690 62 -238 219 -539 366 -699 24 -27 23 -32 -17
-100 -76 -125 -174 -216 -306 -283 -85 -43 -107 -70 -89 -112 19 -46 106 -79
273 -101 185 -26 403 29 578 146 l70 46 67 -32 c358 -173 822 -209 1218 -94
550 158 1012 619 1169 1165 89 312 96 606 20 904 -70 276 -184 496 -371 716
-84 99 -144 155 -269 248 -264 197 -551 308 -884 341 -138 13 -210 12 -377
-11z m519 -148 c158 -32 263 -68 412 -142 165 -81 283 -166 416 -298 332 -333
491 -763 458 -1238 -26 -385 -188 -733 -469 -1012 -230 -228 -549 -387 -875
-437 -139 -22 -423 -14 -555 14 -124 27 -283 83 -394 139 -98 48 -113 49 -161
7 -81 -72 -211 -136 -324 -160 -64 -13 -251 -20 -251 -8 0 3 38 41 85 86 87
82 156 175 200 269 39 84 35 102 -42 194 -177 212 -300 471 -350 735 -27 149
-25 471 5 608 60 276 173 504 355 720 234 277 610 485 962 531 44 6 94 13 110
15 68 10 324 -4 418 -23z" />
        <path d="M957 2078 c-16 -15 -51 -95 -101 -228 -43 -113 -96 -252 -118 -310
-44 -116 -44 -143 4 -169 43 -24 73 -3 108 74 l29 65 130 0 131 0 29 -65 c34
-74 64 -96 106 -77 14 7 30 23 36 36 13 28 9 42 -89 296 -33 85 -77 200 -97
255 -41 108 -70 145 -115 145 -16 0 -40 -10 -53 -22z m91 -320 c18 -46 32 -89
32 -95 0 -9 -21 -13 -70 -13 -77 0 -80 3 -57 61 8 19 22 55 31 82 10 26 21 47
25 47 4 0 22 -37 39 -82z" />
        <path d="M1490 2073 c-20 -26 -21 -34 -18 -349 3 -295 5 -325 21 -341 15 -16
37 -18 165 -18 142 0 149 1 197 28 53 29 94 79 113 136 24 68 9 137 -44 206
-34 45 -34 46 -18 76 20 40 20 128 -1 171 -48 94 -102 118 -269 118 -123 0
-125 0 -146 -27z m268 -129 c27 -18 30 -69 5 -96 -13 -14 -31 -18 -85 -18
l-68 0 0 65 0 65 63 0 c40 0 70 -5 85 -16z m49 -286 c28 -32 34 -66 18 -104
-17 -41 -64 -57 -150 -52 l-60 3 -3 88 -3 87 89 0 c79 0 91 -2 109 -22z" />
        <path d="M2382 2081 c-102 -38 -175 -108 -224 -216 -34 -75 -33 -199 4 -277
78 -168 273 -264 429 -213 141 47 204 130 144 190 -33 34 -55 31 -105 -10 -53
-44 -105 -59 -170 -47 -92 17 -162 86 -179 175 -18 97 22 192 102 244 36 24
52 28 117 28 61 0 83 -5 118 -24 50 -29 87 -22 112 22 22 40 0 75 -74 111 -78
40 -194 46 -274 17z" />
    </g>
</svg>