<?xml version="1.0" standalone="no"?>
<!DOCTYPE svg PUBLIC "-//W3C//DTD SVG 20010904//EN"
 "http://www.w3.org/TR/2001/REC-SVG-20010904/DTD/svg10.dtd">
<svg version="1.0" xmlns="http://www.w3.org/2000/svg"
 width="128.000000pt" height="128.000000pt" viewBox="0 0 128.000000 128.000000"
 preserveAspectRatio="xMidYMid meet">
<metadata>
Created by potrace 1.16, written by Peter Selinger 2001-2019
</metadata>
<g transform="translate(0.000000,128.000000) scale(0.100000,-0.100000)"
fill="#000000" stroke="none">
<path d="M333 1259 c-130 -41 -252 -156 -304 -286 -20 -50 -24 -76 -24 -183 0
-114 2 -131 27 -190 l28 -65 -32 -113 c-17 -62 -28 -115 -26 -118 3 -2 56 9
117 27 l112 31 52 -21 c29 -12 80 -27 115 -34 l62 -13 30 -62 c38 -82 113
-155 198 -195 63 -30 73 -32 182 -32 97 1 123 4 163 23 l49 22 95 -26 c52 -14
97 -23 100 -20 3 3 -6 48 -21 99 l-26 94 22 49 c19 41 22 67 23 164 0 109 -2
119 -32 182 -40 85 -113 160 -195 198 l-62 30 -14 67 c-35 174 -168 323 -333
374 -83 26 -222 25 -306 -2z m252 -73 c158 -42 276 -170 306 -330 27 -151 -45
-314 -180 -404 -122 -81 -271 -90 -404 -24 l-59 30 -61 -19 c-34 -10 -63 -17
-64 -15 -2 2 4 31 13 65 l17 61 -34 72 c-31 67 -34 81 -34 168 0 86 3 101 32
162 88 185 284 284 468 234z m461 -494 c103 -75 149 -160 149 -277 0 -67 -5
-90 -29 -142 -26 -56 -27 -67 -18 -105 6 -23 10 -43 9 -45 -2 -1 -22 3 -45 9
-38 9 -49 8 -105 -18 -81 -38 -196 -41 -269 -7 -80 37 -188 152 -175 187 3 7
23 16 44 19 148 25 310 179 353 337 7 25 14 51 16 58 5 19 28 14 70 -16z"/>
<path d="M424 1046 c-38 -17 -79 -70 -89 -113 l-7 -33 44 0 c39 0 45 3 55 30
20 53 101 54 123 1 15 -37 5 -57 -55 -113 -43 -38 -45 -43 -45 -94 l0 -54 40
0 c38 0 40 2 40 30 0 22 10 39 41 67 53 48 69 81 69 141 0 112 -112 183 -216
138z"/>
</g>
</svg>
