<svg xmlns="http://www.w3.org/2000/svg" version="1.1" xmlns:xlink="http://www.w3.org/1999/xlink" width="512" height="512" x="0" y="0" viewBox="0 0 512 512" style="enable-background:new 0 0 512 512" xml:space="preserve" class=""><g><path fill-rule="evenodd" d="M460.466 264.806c-20.685 37.179-50.698 67.307-86.143 88.107l-43.291-43.274c10.864-15.122 17.229-33.651 17.229-53.639 0-50.862-41.371-92.25-92.233-92.25-20.027 0-38.517 6.398-53.661 17.24l-36.103-36.12a233.304 233.304 0 0 1 89.764-17.947c84.771 0 163.122 46.084 204.438 120.276 3.237 5.756 3.237 11.846 0 17.607zm32.646-7.743v-2.123c-.175-7.664-2.24-15.308-6.2-22.451-46.693-83.767-135.14-135.798-230.884-135.798-39.615 0-77.967 8.911-112.644 25.278l-24.252-24.235a15.14 15.14 0 0 0-21.399 0c-5.871 5.904-5.871 15.473 0 21.376l17.997 17.986c-37.091 23.264-68.53 55.779-90.587 95.393-8.34 14.946-8.34 32.081 0 47.016 46.638 83.767 135.085 135.809 230.885 135.809 39.615 0 77.967-8.916 112.644-25.289l24.252 24.252c2.908 2.947 6.803 4.417 10.644 4.417 3.896 0 7.736-1.47 10.699-4.417 5.926-5.909 5.926-15.473 0-21.382l-17.942-17.986c37.091-23.269 68.53-55.79 90.587-95.405 3.96-7.137 6.025-14.777 6.2-22.441zm-205.261 52.143-85.045-85.034a61.603 61.603 0 0 0-8.834 31.829c0 34.199 27.818 62.017 62.056 62.017 11.631-.001 22.495-3.221 31.823-8.812zm21.343-21.377A61.574 61.574 0 0 0 318.028 256c0-34.199-27.818-62.017-62.001-62.017-11.632 0-22.551 3.215-31.823 8.812zm-53.167 97.259c31.275 0 61.727-6.293 89.764-17.958l-36.158-36.114c-15.089 10.848-33.634 17.229-53.606 17.229-50.863 0-92.288-41.371-92.288-92.244 0-19.983 6.419-38.506 17.283-53.633l-43.291-43.28c-35.5 20.801-65.458 50.923-86.198 88.113-3.182 5.756-3.182 11.846 0 17.607 41.317 74.191 119.668 120.28 204.494 120.28z" clip-rule="evenodd" fill="#0084ac" opacity="1" data-original="#000000" class=""></path></g></svg>