<svg height="512" viewBox="0 0 128 128" width="512" xmlns="http://www.w3.org/2000/svg" xmlns:xlink="http://www.w3.org/1999/xlink"><linearGradient id="a" gradientUnits="userSpaceOnUse" x1="125.728" x2="2.272" y1="125.728" y2="2.272"><stop offset="0" stop-color="#ff6680"/><stop offset="1" stop-color="#ffd830"/></linearGradient><path d="m120.25 65.622h-17.689v-2.809a1.75 1.75 0 0 0 -3.5 0v2.809h-4.5v-24.432a7.759 7.759 0 0 0 -7.75-7.75h-8.592a1.749 1.749 0 0 0 -1.75 1.75v6.866l-13.1-10.867 13.1-10.867v6.868a1.75 1.75 0 0 0 1.75 1.75h8.592a12.263 12.263 0 0 1 12.25 12.25 1.75 1.75 0 0 0 3.5 0 15.767 15.767 0 0 0 -15.75-15.75h-6.842v-8.84a1.75 1.75 0 0 0 -2.869-1.35l-14.722 12.213v-19.713a7.759 7.759 0 0 0 -7.75-7.75h-46.878a7.759 7.759 0 0 0 -7.75 7.75v46.878a1.75 1.75 0 0 0 3.5 0v-46.878a4.255 4.255 0 0 1 4.25-4.25h46.878a4.255 4.255 0 0 1 4.25 4.25v46.878a4.255 4.255 0 0 1 -4.25 4.25h-42.253a1.75 1.75 0 0 0 0 3.5h13.064v24.432a15.767 15.767 0 0 0 15.75 15.75h6.842v8.84a1.75 1.75 0 0 0 2.869 1.35l14.724-12.213v19.713a7.759 7.759 0 0 0 7.75 7.75h46.876a7.759 7.759 0 0 0 7.75-7.75v-46.878a7.759 7.759 0 0 0 -7.75-7.75zm-68.719 42.056v-6.868a1.75 1.75 0 0 0 -1.75-1.75h-8.592a12.263 12.263 0 0 1 -12.25-12.25v-24.432h4.5v24.432a7.759 7.759 0 0 0 7.75 7.75h8.592a1.749 1.749 0 0 0 1.75-1.75v-6.866l13.1 10.867zm-.631-26.806a1.75 1.75 0 0 0 -2.867 1.347v8.841h-6.844a4.255 4.255 0 0 1 -4.25-4.25v-24.432h17.689a7.759 7.759 0 0 0 7.75-7.75v-19.714l14.722 12.214a1.75 1.75 0 0 0 2.867-1.347v-8.841h6.842a4.255 4.255 0 0 1 4.25 4.25v24.432h-17.687a7.759 7.759 0 0 0 -7.75 7.75v19.714zm73.6 39.378a4.255 4.255 0 0 1 -4.25 4.25h-46.878a4.255 4.255 0 0 1 -4.25-4.25v-46.878a4.255 4.255 0 0 1 4.25-4.25h46.878a4.255 4.255 0 0 1 4.25 4.25zm-21.939-69.5v2.5a1.75 1.75 0 0 1 -3.5 0v-2.5a1.75 1.75 0 0 1 3.5 0zm-.183 30.807a5.907 5.907 0 0 0 -11.134 0l-11.395 32.1a1.75 1.75 0 0 0 3.3 1.17l3.887-10.951h19.552l3.887 10.951a1.75 1.75 0 1 0 3.3-1.17zm-14.1 18.819 6.264-17.649a2.408 2.408 0 0 1 4.538 0l6.264 17.649zm-57.089-88.37a1.75 1.75 0 0 0 -1.75 1.75v4.5h-13.562a1.75 1.75 0 0 0 0 3.5h5.972a40.535 40.535 0 0 0 7.093 15.266 36.916 36.916 0 0 1 -11.58 8.926l-2.256 1.106a1.75 1.75 0 0 0 .772 3.321 1.731 1.731 0 0 0 .768-.179l2.256-1.1a40.362 40.362 0 0 0 12.287-9.342 40.362 40.362 0 0 0 12.287 9.342l2.255 1.1a1.75 1.75 0 1 0 1.54-3.142l-2.254-1.106a36.908 36.908 0 0 1 -11.581-8.926 40.535 40.535 0 0 0 7.093-15.266h5.971a1.75 1.75 0 0 0 0-3.5h-13.561v-4.5a1.75 1.75 0 0 0 -1.75-1.75zm0 22.148a37.022 37.022 0 0 1 -5.756-12.4h11.512a37.022 37.022 0 0 1 -5.756 12.4z" fill="url(#a)"/></svg>