<?xml version="1.0" encoding="iso-8859-1"?>
<!-- Generator: Adobe Illustrator 19.0.0, SVG Export Plug-In . SVG Version: 6.00 Build 0)  -->
<svg version="1.1" id="Capa_1" xmlns="http://www.w3.org/2000/svg" xmlns:xlink="http://www.w3.org/1999/xlink" x="0px" y="0px"
	 viewBox="0 0 512 512" style="enable-background:new 0 0 512 512;" xml:space="preserve">
<g>
	<g>
		<path d="M421,214.58V165C421,74.019,346.981,0,256,0S91,74.019,91,165v49.58c-17.459,6.192-30,22.865-30,42.42v60
			c0,107.523,87.477,195,195,195s195-87.477,195-195v-60C451,237.445,438.459,220.772,421,214.58z M121,165
			c0-74.439,60.561-135.2,135-135.2S391,90.561,391,165v47h-30v-47c0-57.897-47.103-105-105-105c-57.897,0-105,47.103-105,105v47
			h-30V165z M331,165v47H181v-47c0-41.355,33.645-75.2,75-75.2S331,123.645,331,165z M421,317c0,90.981-74.019,165.2-165,165.2
			S91,407.981,91,317v-60c0-8.271,6.729-15,15-15h300c8.271,0,15,6.729,15,15V317z"/>
	</g>
</g>
<g>
	<g>
		<path d="M256,272c-24.813,0-45,20.187-45,45c0,19.555,12.541,36.228,30,42.42V407c0,8.284,6.716,15,15,15s15-6.716,15-15v-47.58
			c17.459-6.192,30-22.865,30-42.42C301,292.187,280.813,272,256,272z M256,332c-8.271,0-15-6.729-15-15s6.729-15,15-15
			s15,6.729,15,15S264.271,332,256,332z"/>
	</g>
</g>
<g>
</g>
<g>
</g>
<g>
</g>
<g>
</g>
<g>
</g>
<g>
</g>
<g>
</g>
<g>
</g>
<g>
</g>
<g>
</g>
<g>
</g>
<g>
</g>
<g>
</g>
<g>
</g>
<g>
</g>
</svg>
