<svg xmlns="http://www.w3.org/2000/svg" version="1.1" xmlns:xlink="http://www.w3.org/1999/xlink" xmlns:svgjs="http://svgjs.com/svgjs" width="512" height="512" x="0" y="0" viewBox="0 0 504 504" style="enable-background:new 0 0 512 512" xml:space="preserve" class=""><g><path d="M377.6 0H126C56.8 0 0 56.8 0 126.4V378c0 69.2 56.8 126 126 126h251.6c69.6 0 126.4-56.8 126.4-126.4V126.4C504 56.8 447.2 0 377.6 0zM238.4 103.6c.8-12.4 12.4-8 18.4-8.8 75.2 2.4 140 70 139.2 142.8 0 7.2 2.4 17.6-8.4 17.6-10.4 0-7.6-10.8-8.8-18-10-77.2-46-113.6-124.4-125.6-6.4-.8-16.4.4-16-8zm112.4 137.2c-12 1.6-9.6-8.8-10.8-15.6-8-47.2-24.8-64.4-73.2-74.8-7.2-1.6-18.4-.4-16.4-11.2 1.6-10.4 11.6-6.8 19.2-6 48.4 5.6 88 46.8 87.6 92-.8 4.8 2.4 14-6.4 15.6zm-30-24.8c0 6.4-.8 12.4-8 13.2-5.2.8-8.4-3.6-9.2-8.8-2-19.2-12.4-30.8-32.4-34-6-.8-11.6-2.8-8.8-10.8 2-5.2 6.8-6 12-6 21.6-.4 46.4 24.8 46.4 46.4zm76 147.6c-8.4 22.8-36.8 46-61.2 45.6-3.6-.8-10.4-2-16.4-4.4C212 359.6 134 285.2 90 178.8c-14.8-35.6.8-66 38-78 6.8-2.4 13.2-2.4 20 0 16 5.6 56.4 60.4 57.2 76.4.8 12.4-8 19.2-16.4 24.8-16.4 10.8-16.4 24.4-9.2 40 15.6 34.4 42.4 58.4 77.2 73.6 12.4 5.6 24.8 5.2 33.2-7.6 15.2-22.8 34-21.6 54.4-7.6 10.4 7.2 20.8 14 30.4 21.6 13.2 10.8 30 19.6 22 41.6z" fill="#2fd336" data-original="#000000" opacity="1" class=""></path></g></svg>