<svg height="480pt" viewBox="0 0 480 480" width="480pt" xmlns="http://www.w3.org/2000/svg" xmlns:xlink="http://www.w3.org/1999/xlink"><linearGradient id="a"><stop offset="0" stop-color="#e93e3a"/><stop offset=".35" stop-color="#ed683c"/><stop offset=".7" stop-color="#f3903f"/><stop offset="1" stop-color="#fdc70c"/></linearGradient><linearGradient id="b" gradientUnits="userSpaceOnUse" x1="352" x2="352" xlink:href="#a" y1="492.6" y2="-14.488"/><linearGradient id="c" gradientUnits="userSpaceOnUse" x1="416" x2="416" xlink:href="#a" y1="492.6" y2="-14.488"/><linearGradient id="d" gradientUnits="userSpaceOnUse" x1="288" x2="288" xlink:href="#a" y1="492.6" y2="-14.488"/><linearGradient id="e" gradientUnits="userSpaceOnUse" x1="424" x2="424" xlink:href="#a" y1="492.6" y2="-14.488"/><linearGradient id="f" gradientUnits="userSpaceOnUse" x1="192" x2="192" xlink:href="#a" y1="492.6" y2="-14.488"/><linearGradient id="g" gradientUnits="userSpaceOnUse" x1="160" x2="160" xlink:href="#a" y1="492.6" y2="-14.488"/><linearGradient id="h" gradientUnits="userSpaceOnUse" x1="224" x2="224" xlink:href="#a" y1="492.6" y2="-14.488"/><path d="m456 336v16c4.417969 0 8 3.582031 8 8v96c0 4.417969-3.582031 8-8 8h-208c-4.417969 0-8-3.582031-8-8v-96c0-4.417969 3.582031-8 8-8h144v-16h-144c-13.253906 0-24 10.746094-24 24v96c0 13.253906 10.746094 24 24 24h208c13.253906 0 24-10.746094 24-24v-96c0-13.253906-10.746094-24-24-24zm0 0" fill="url(#b)"/><path d="m312 408c0 22.089844 17.910156 40 40 40s40-17.910156 40-40-17.910156-40-40-40c-22.082031.027344-39.972656 17.917969-40 40zm64 0c0 13.253906-10.746094 24-24 24s-24-10.746094-24-24 10.746094-24 24-24 24 10.746094 24 24zm0 0" fill="url(#b)"/><path d="m408 400h16v16h-16zm0 0" fill="url(#c)"/><path d="m280 400h16v16h-16zm0 0" fill="url(#d)"/><path d="m416.566406 354.976562c1.214844 3.042969 4.160156 5.039063 7.433594 5.039063s6.21875-1.996094 7.433594-5.039063l16-40c.375-.949218.566406-1.957031.566406-2.976562v-256c0-13.253906-10.746094-24-24-24s-24 10.746094-24 24v256c0 1.019531.191406 2.027344.566406 2.976562zm7.433594-24.511718-7.382812-18.464844h14.765624zm0-282.464844c4.417969 0 8 3.582031 8 8v240h-16v-240c0-4.417969 3.582031-8 8-8zm0 0" fill="url(#e)"/><g fill="url(#f)"><path d="m272 296v-47.839844c-.042969-17.847656-11.855469-33.53125-29-38.496094l-27-7.710937v-10.160156c10.035156-7.492188 15.964844-19.269531 16-31.792969v-8c4.417969 0 8-3.582031 8-8v-8c0-26.507812-21.492188-48-48-48s-48 21.492188-48 48v8c0 4.417969 3.582031 8 8 8v8c.035156 12.523438 5.964844 24.300781 16 31.792969v10.160156l-26.992188 7.710937c-17.148437 4.960938-28.96875 20.644532-29.007812 38.496094v47.839844c0 4.417969 3.582031 8 8 8h144c4.417969 0 8-3.582031 8-8zm-80-192c17.589844 0 31.882812 14.195312 32 31.785156-2.296875-.558594-4.230469-2.101562-5.28125-4.21875l-3.558594-7.132812c-1.023437-2.058594-2.882812-3.574219-5.101562-4.164063-2.222656-.59375-4.585938-.199219-6.5 1.074219l-11.902344 7.9375c-6.570312 4.386719-14.292969 6.726562-22.191406 6.71875h-9.464844c0-17.671875 14.328125-32 32-32zm-22.535156 48c11.058594.011719 21.867187-3.265625 31.0625-9.40625l4.382812-2.921875c2.519532 4.445313 6.410156 7.953125 11.089844 10v10.328125c0 13.253906-10.746094 24-24 24s-24-10.746094-24-24v-8zm22.535156 48c2.6875.003906 5.367188-.265625 8-.800781v8.800781c.027344 2.277344 1.03125 4.433594 2.761719 5.921875l-10.761719 8.078125-10.761719-8.078125c1.730469-1.488281 2.734375-3.644531 2.761719-5.921875v-8.800781c2.632812.535156 5.3125.804687 8 .800781zm64 88h-16v-40h-16v40h-64v-40h-16v40h-16v-39.839844c.019531-10.714844 7.109375-20.128906 17.398438-23.113281l17.402343-4.957031 24.398438 18.308594c2.84375 2.136718 6.757812 2.136718 9.601562 0l24.398438-18.308594 17.410156 4.964844c10.285156 2.980468 17.371094 12.394531 17.390625 23.105468zm0 0"/><path d="m48 48h288v272h16v-272c0-8.835938-7.164062-16-16-16h-288c-8.835938 0-16 7.164062-16 16v368c0 8.835938 7.164062 16 16 16h160v-16h-160zm0 0"/><path d="m16 456v-432c0-4.417969 3.582031-8 8-8h336c4.417969 0 8 3.582031 8 8v296h16v-296c0-13.253906-10.746094-24-24-24h-336c-13.253906 0-24 10.746094-24 24v432c0 13.253906 10.746094 24 24 24h184v-16h-184c-4.417969 0-8-3.582031-8-8zm0 0"/><path d="m184 440h16v16h-16zm0 0"/><path d="m184 320h16v16h-16zm0 0"/></g><path d="m152 320h16v16h-16zm0 0" fill="url(#g)"/><path d="m216 320h16v16h-16zm0 0" fill="url(#h)"/></svg>