<svg xmlns="http://www.w3.org/2000/svg" width="22.038" height="21.549" viewBox="0 0 22.038 21.549">
  <g id="Icon_feather-search" data-name="Icon feather-search" transform="translate(-3 -3)">
    <path id="Path_11835" data-name="Path 11835"
      d="M13.437,3a10.437,10.437,0,0,1,7.38,17.817A10.437,10.437,0,1,1,6.057,6.057,10.369,10.369,0,0,1,13.437,3Zm0,18.555a8.118,8.118,0,1,0-8.118-8.118A8.127,8.127,0,0,0,13.437,21.555Z"
      transform="translate(0 0)" fill="#0084AC" />
    <path id="Path_11836" data-name="Path 11836"
      d="M28.523,29.195a1.155,1.155,0,0,1-.763-.287l-3.889-3.4A1.16,1.16,0,0,1,25.4,23.762l3.889,3.4a1.16,1.16,0,0,1-.764,2.033Z"
      transform="translate(-4.646 -4.646)" fill="#0084AC" />
  </g>
</svg>