<svg xmlns="http://www.w3.org/2000/svg" version="1.1" xmlns:xlink="http://www.w3.org/1999/xlink" width="512" height="512" x="0" y="0" viewBox="0 0 32 32" style="enable-background:new 0 0 512 512" xml:space="preserve" class=""><g><path fill="#0084ac" d="M29.923 4.566 22.761 28.58c-.508 1.704-2.821 1.947-3.672.386l-5.385-9.871a2.003 2.003 0 0 0-.798-.798l-9.871-5.385c-1.562-.852-1.319-3.165.385-3.673l24.014-7.162c1.524-.454 2.943.965 2.489 2.489z" opacity="0.3215686274509804" data-original="#cdf6f9" class=""></path><path fill="#0084ac" d="M30.057 1.943a2.887 2.887 0 0 0-2.879-.728L3.163 8.377a2.854 2.854 0 0 0-2.055 2.476 2.855 2.855 0 0 0 1.495 2.849l9.872 5.385c.186.102.337.253.438.438l5.385 9.871a2.849 2.849 0 0 0 2.849 1.496 2.854 2.854 0 0 0 2.475-2.056l7.162-24.014a2.894 2.894 0 0 0-.727-2.879zm-.997 2.365-7.162 24.015a1.078 1.078 0 0 1-.939.779 1.081 1.081 0 0 1-1.081-.567l-5.343-9.794 8.113-8.114a.898.898 0 0 0 0-1.272.898.898 0 0 0-1.272 0l-8.113 8.112-9.798-5.345c-.598-.326-.585-.91-.567-1.081s.127-.745.78-.939L27.692 2.94a1.084 1.084 0 0 1 1.092.277c.29.289.393.698.276 1.091z" opacity="1" data-original="#1a83a8" class=""></path></g></svg>