<?xml version="1.0" standalone="no"?>
<!DOCTYPE svg PUBLIC "-//W3C//DTD SVG 20010904//EN"
 "http://www.w3.org/TR/2001/REC-SVG-20010904/DTD/svg10.dtd">
<svg version="1.0" xmlns="http://www.w3.org/2000/svg"
 width="225.000000pt" height="225.000000pt" viewBox="0 0 225.000000 225.000000"
 preserveAspectRatio="xMidYMid meet">
<metadata>
Created by potrace 1.16, written by Peter Selinger 2001-2019
</metadata>
<g transform="translate(0.000000,225.000000) scale(0.100000,-0.100000)"
fill="#000000" stroke="none">
<path d="M1020 2239 c-32 -13 -68 -47 -86 -81 -9 -17 -14 -59 -14 -118 0 -131
-34 -189 -119 -206 -51 -10 -80 4 -157 77 -79 75 -105 89 -164 89 -56 0 -84
-13 -141 -67 -81 -76 -106 -146 -78 -220 6 -15 41 -60 79 -99 38 -39 72 -83
76 -98 13 -51 -3 -99 -45 -138 l-40 -38 -98 0 c-126 0 -176 -22 -211 -90 -20
-39 -23 -57 -20 -137 2 -74 7 -97 24 -119 44 -59 66 -68 187 -74 62 -3 122
-11 134 -18 51 -28 83 -101 68 -159 -3 -14 -37 -58 -75 -97 -74 -77 -90 -106
-90 -167 0 -55 17 -84 92 -156 107 -103 173 -98 295 19 66 64 77 71 121 76 59
5 105 -15 132 -61 16 -26 20 -50 20 -126 0 -169 47 -222 199 -229 75 -3 92 0
131 20 72 37 90 73 90 185 0 105 13 148 56 182 l28 22 -61 61 -60 60 -52 -11
c-238 -51 -514 71 -643 284 -65 107 -82 173 -83 315 0 106 4 136 24 198 59
179 202 325 381 389 97 35 243 42 344 19 311 -73 521 -389 467 -701 l-12 -69
60 -60 61 -61 16 23 c27 39 67 52 156 52 106 0 146 12 186 53 39 40 52 81 52
167 0 48 -6 77 -22 110 -38 73 -62 84 -192 91 -125 6 -152 16 -186 72 -42 68
-24 126 70 223 74 76 88 111 75 182 -10 53 -134 177 -187 187 -71 13 -106 -1
-182 -75 -39 -37 -81 -72 -93 -79 -50 -26 -139 -1 -171 48 -12 18 -19 56 -23
136 -6 132 -26 175 -93 206 -46 21 -182 25 -226 8z"/>
<path d="M1021 1583 c-21 -4 -11 -17 97 -126 132 -135 149 -165 139 -249 -11
-93 -75 -171 -166 -203 -106 -37 -150 -18 -297 127 -138 135 -134 135 -134 -2
0 -134 44 -244 135 -335 122 -121 304 -166 467 -115 l63 20 215 -214 c271
-268 268 -266 331 -266 81 0 134 39 159 116 26 78 18 89 -241 350 l-240 240
17 45 c22 61 29 182 15 251 -35 168 -169 310 -335 354 -48 13 -172 17 -225 7z
m917 -1159 c44 -50 11 -124 -56 -124 -87 0 -116 112 -38 146 38 16 64 10 94
-22z"/>
</g>
</svg>
