<svg xmlns="http://www.w3.org/2000/svg" version="1.1" xmlns:xlink="http://www.w3.org/1999/xlink" width="512" height="512" x="0" y="0" viewBox="0 0 48 48" style="enable-background:new 0 0 512 512" xml:space="preserve" fill-rule="evenodd" class=""><g><path d="M46.653 25.4a2.996 2.996 0 0 0 0-2.8C46.631 22.557 39.458 9 24 9S1.369 22.557 1.347 22.6a2.996 2.996 0 0 0 0 2.8C1.369 25.443 8.542 39 24 39s22.631-13.557 22.653-13.6zm-1.769-.933S38.272 37 24 37 3.116 24.467 3.116 24.467c-.155-.292-.155-.642 0-.934S9.728 11 24 11s20.884 12.533 20.884 12.533a.996.996 0 0 1 0 .934z" fill="#0084ac" opacity="1" data-original="#000000" class=""></path><path d="M24 15c-4.967 0-9 4.033-9 9s4.033 9 9 9 9-4.033 9-9-4.033-9-9-9zm0 2c3.863 0 7 3.137 7 7s-3.137 7-7 7-7-3.137-7-7 3.137-7 7-7z" fill="#0084ac" opacity="1" data-original="#000000" class=""></path><path d="M21 24c0-1.656 1.344-3 3-3a1 1 0 0 0 0-2c-2.76 0-5 2.24-5 5a1 1 0 0 0 2 0z" fill="#0084ac" opacity="1" data-original="#000000" class=""></path></g></svg>