<svg xmlns="http://www.w3.org/2000/svg" width="17" height="12.955" viewBox="0 0 17 12.955">
  <path id="Icon_awesome-sign-out-alt" data-name="Icon awesome-sign-out-alt" d="M16.765,11.549,11.1,17.216a.811.811,0,0,1-1.383-.573V13.4H5.127a.808.808,0,0,1-.81-.81V9.357a.808.808,0,0,1,.81-.81H9.715V5.309A.811.811,0,0,1,11.1,4.735L16.765,10.4A.816.816,0,0,1,16.765,11.549Zm-10.288,5.5V15.7a.406.406,0,0,0-.4-.4H3.238a1.078,1.078,0,0,1-1.079-1.079V7.737A1.078,1.078,0,0,1,3.238,6.658H6.072a.406.406,0,0,0,.4-.4V4.9a.406.406,0,0,0-.4-.4H3.238A3.239,3.239,0,0,0,0,7.737v6.477a3.239,3.239,0,0,0,3.238,3.238H6.072A.406.406,0,0,0,6.477,17.047Z" transform="translate(0 -4.499)" fill="#fff"/>
</svg>
