<?xml version="1.0" standalone="no"?>
<!DOCTYPE svg PUBLIC "-//W3C//DTD SVG 20010904//EN"
 "http://www.w3.org/TR/2001/REC-SVG-20010904/DTD/svg10.dtd">
<svg version="1.0" xmlns="http://www.w3.org/2000/svg"
 width="225.000000pt" height="225.000000pt" viewBox="0 0 225.000000 225.000000"
 preserveAspectRatio="xMidYMid meet">
<metadata>
Created by potrace 1.16, written by Peter Selinger 2001-2019
</metadata>
<g transform="translate(0.000000,225.000000) scale(0.100000,-0.100000)"
fill="#000000" stroke="none">
<path d="M766 2234 c-9 -8 -16 -28 -16 -44 l0 -28 -209 -4 c-229 -3 -235 -5
-284 -70 -19 -25 -19 -55 -19 -1006 l0 -981 21 -35 c43 -69 3 -66 866 -66 861
0 823 -3 865 65 20 32 20 49 20 1016 1 941 0 984 -18 1008 -47 64 -55 66 -283
69 l-209 4 0 28 c0 60 2 60 -375 60 -299 0 -346 -2 -359 -16z m642 -196 l3
-118 -286 0 -285 0 0 113 c0 63 3 117 7 120 4 4 131 6 282 5 l276 -3 3 -117z
m-658 -23 l0 -45 -149 0 c-144 0 -151 -1 -165 -22 -14 -20 -16 -120 -16 -875
0 -761 2 -853 16 -867 14 -14 90 -16 694 -16 661 0 680 1 690 19 7 13 10 304
10 872 0 779 -1 854 -17 871 -14 16 -33 18 -165 18 l-148 0 0 45 0 45 198 0
c141 0 201 -3 210 -12 9 -9 12 -238 12 -969 0 -857 -2 -959 -16 -973 -14 -14
-98 -16 -775 -16 -505 0 -767 3 -780 10 -19 10 -19 32 -19 973 0 736 3 966 12
975 9 9 69 12 210 12 l198 0 0 -45z m8 -160 l12 -25 349 0 c304 0 352 2 365
16 9 8 16 20 16 25 0 6 47 9 118 7 l117 -3 1 -797 1 -798 -609 0 c-572 0 -608
1 -609 18 -4 46 -6 1568 -2 1575 2 4 55 7 117 7 111 0 113 0 124 -25z"/>
<path d="M1070 1651 c-59 -50 -101 -71 -144 -71 -49 0 -66 -21 -66 -85 0 -70
31 -168 74 -232 54 -79 163 -183 192 -183 39 0 172 143 219 235 33 64 39 87
43 157 5 91 -4 108 -60 108 -43 0 -96 26 -144 70 -24 22 -49 40 -56 40 -7 0
-33 -17 -58 -39z m100 -110 c21 -15 60 -34 86 -41 45 -13 46 -14 41 -47 -9
-51 -49 -132 -97 -191 -64 -79 -74 -82 -122 -31 -71 75 -128 184 -128 247 0 4
24 16 53 25 28 9 66 28 82 42 17 13 33 24 38 25 4 0 25 -13 47 -29z"/>
<path d="M672 878 c-15 -15 -15 -51 0 -66 17 -17 609 -17 626 0 7 7 12 21 12
33 0 12 -5 26 -12 33 -17 17 -609 17 -626 0z"/>
<path d="M672 688 c-15 -15 -15 -51 0 -66 16 -16 869 -17 899 -2 21 12 25 50
7 68 -17 17 -889 17 -906 0z"/>
<path d="M694 511 c-37 -7 -48 -63 -15 -81 13 -6 171 -10 446 -10 275 0 433 4
446 10 22 12 25 52 5 69 -11 9 -129 13 -439 14 -233 1 -432 0 -443 -2z"/>
</g>
</svg>
