<?xml version="1.0" standalone="no"?>
<!DOCTYPE svg PUBLIC "-//W3C//DTD SVG 20010904//EN"
 "http://www.w3.org/TR/2001/REC-SVG-20010904/DTD/svg10.dtd">
<svg version="1.0" xmlns="http://www.w3.org/2000/svg"
 width="200.000000pt" height="200.000000pt" viewBox="0 0 200.000000 200.000000"
 preserveAspectRatio="xMidYMid meet">
<metadata>
Created by potrace 1.16, written by Peter Selinger 2001-2019
</metadata>
<g transform="translate(0.000000,200.000000) scale(0.100000,-0.100000)"
fill="#000000" stroke="none">
<path d="M802 1859 c-25 -13 -55 -39 -73 -65 l-30 -44 -175 0 c-197 0 -231 -8
-264 -62 -20 -32 -20 -45 -18 -766 l3 -734 37 -34 38 -34 574 0 c566 0 574 0
600 21 14 11 33 34 41 49 20 39 20 163 0 180 -25 21 -35 1 -35 -74 0 -59 -4
-78 -21 -100 l-20 -26 -564 0 -564 0 -20 26 c-21 26 -21 34 -21 741 l0 714 25
24 c22 23 32 25 108 25 l84 0 -5 -78 c-5 -92 13 -147 53 -162 15 -6 157 -10
341 -10 330 0 362 4 378 45 3 9 6 59 6 112 l0 95 90 -4 c124 -4 124 -5 128
-166 4 -127 12 -153 39 -130 21 17 18 234 -5 278 -30 62 -62 70 -269 70 -115
0 -183 4 -183 10 0 19 -75 93 -107 107 -48 20 -121 16 -171 -8z m179 -52 c18
-12 44 -40 56 -62 l22 -40 83 -5 83 -5 3 -89 c2 -65 -1 -92 -10 -98 -7 -4
-152 -8 -323 -8 -171 0 -316 4 -323 8 -9 6 -12 33 -10 98 l3 89 83 3 c67 2 84
6 89 20 12 33 46 74 77 93 45 27 123 26 167 -4z"/>
<path d="M829 1731 c-64 -65 -19 -166 73 -163 45 1 88 49 88 98 0 50 -45 94
-95 94 -27 0 -44 -8 -66 -29z"/>
<path d="M1045 1292 l-220 -77 -3 -125 c-1 -69 2 -156 8 -194 37 -236 174
-423 413 -561 l47 -27 76 48 c160 99 254 199 319 336 57 120 69 183 69 363 l1
159 -220 77 c-121 43 -231 78 -245 78 -14 0 -124 -35 -245 -77z m458 -43 l207
-71 0 -103 c0 -315 -110 -518 -368 -675 l-53 -32 -55 33 c-253 153 -364 355
-364 664 l0 113 203 70 c111 39 207 71 212 72 6 0 103 -32 218 -71z"/>
<path d="M1233 1085 c-35 -15 -59 -46 -73 -96 -9 -29 -6 -42 15 -82 l24 -47
-17 -81 c-16 -79 -16 -81 3 -95 28 -21 188 -19 209 2 20 19 20 17 0 108 -16
73 -16 75 5 102 44 56 18 154 -52 187 -42 20 -71 21 -114 2z m96 -50 c16 -8
31 -22 35 -30 12 -34 5 -83 -16 -110 -20 -26 -21 -31 -9 -87 6 -32 14 -65 18
-73 4 -12 -8 -15 -67 -15 -63 0 -71 2 -66 18 2 9 10 42 17 73 11 53 10 58 -11
87 -37 49 -25 123 23 142 32 13 44 12 76 -5z"/>
<path d="M417 1207 c-13 -33 7 -38 159 -35 141 3 149 4 149 23 0 19 -8 20
-151 23 -121 2 -153 0 -157 -11z"/>
<path d="M418 1058 c-13 -35 2 -38 159 -38 l154 0 -3 23 c-3 22 -6 22 -154 25
-116 2 -153 -1 -156 -10z"/>
<path d="M423 909 c-6 -6 -9 -18 -6 -25 4 -11 38 -14 160 -14 l154 0 -3 23
c-3 22 -6 22 -148 25 -100 2 -149 -1 -157 -9z"/>
<path d="M425 757 c-39 -29 -7 -37 151 -37 144 0 154 1 154 19 0 28 -18 31
-159 31 -91 0 -132 -4 -146 -13z"/>
<path d="M422 588 c3 -23 3 -23 208 -23 205 0 205 0 208 23 l3 22 -211 0 -211
0 3 -22z"/>
<path d="M417 446 c-13 -32 18 -36 259 -34 231 3 239 4 239 23 0 19 -8 20
-246 23 -208 2 -248 0 -252 -12z"/>
</g>
</svg>
